<svg width="294" height="648" viewBox="0 0 294 648" fill="none" xmlns="http://www.w3.org/2000/svg">
<path d="M185 647.5V0H115.5L114.636 0.929586C110.932 4.91883 108.234 9.73487 106.766 14.9771L106.364 16.4136C105.79 18.4616 105.5 20.5784 105.5 22.7051V26.0163C105.5 28.2915 106.148 30.5196 107.37 32.4391C108.439 34.1197 109.912 35.5067 111.653 36.4741L118 40L123 67.5L131 70L134.5 76L131 181C125.74 187.575 119.01 192.824 111.353 196.324L105.5 199L93.4995 206C86.8579 209.985 80.7301 214.769 75.2533 220.246L74.4995 221L65.9995 231L62.7712 235.641C59.5998 240.2 56.9422 245.095 54.8469 250.238C53.2846 254.073 52.0412 258.03 51.1292 262.069L51.0102 262.595C49.6739 268.513 48.9995 274.562 48.9995 280.629V634L57.4995 640L106 647.5H185Z" fill="#C3B799"/>
<path d="M158 647.5V0H227.5L228.363 0.929586C232.067 4.91883 234.765 9.73487 236.233 14.9771L236.635 16.4136C237.209 18.4616 237.5 20.5784 237.5 22.7051V26.0163C237.5 28.2915 236.851 30.5196 235.629 32.4391C234.56 34.1197 233.087 35.5067 231.346 36.4741L225 40L220 67.5L212 70L208.5 76L212 181C217.259 187.575 223.989 192.824 231.646 196.324L237.5 199L249.5 206C256.141 209.985 262.269 214.769 267.746 220.246L268.5 221L277 231L280.228 235.641C283.399 240.2 286.057 245.095 288.152 250.238C289.714 254.073 290.958 258.03 291.87 262.069L291.989 262.595C293.325 268.513 294 274.562 294 280.629V634L285.5 640L237 647.5H158Z" fill="#C3B799"/>
<rect x="71.9995" y="285" width="199" height="254" rx="15" fill="#D9CDBB"/>
<path d="M63.3579 238.432C72.7115 237.029 87.8578 242.932 87.8578 242.932C87.8578 242.932 100.042 245.464 106.868 252.01C116.601 261.343 111.227 286.263 111.227 286.263L79.8584 384.932L42.9291 373.192L5.99976 361.451L37.3686 262.782C37.3686 262.782 50.0227 240.431 63.3579 238.432Z" fill="#D4A913" stroke="#D4A913" stroke-width="8"/>
<path d="M67.93 245.419C66.5232 249.315 68.5411 253.614 72.437 255.02C76.333 256.427 80.6316 254.409 82.0384 250.513L67.93 245.419ZM87.9845 207.467L95.247 209.34L87.9845 207.467ZM74.9842 247.966C82.0384 250.513 82.0385 250.513 82.0386 250.513C82.0387 250.512 82.0389 250.512 82.0391 250.511C82.0395 250.51 82.04 250.509 82.0406 250.507C82.0419 250.504 82.0437 250.499 82.0461 250.492C82.0508 250.479 82.0576 250.46 82.0665 250.435C82.0844 250.386 82.1106 250.313 82.1447 250.218C82.2129 250.028 82.3127 249.749 82.4409 249.39C82.6971 248.671 83.0665 247.63 83.5219 246.334C84.4325 243.741 85.689 240.119 87.0738 236.001C89.8261 227.815 93.1495 217.475 95.247 209.34L80.722 205.595C78.7675 213.176 75.5908 223.086 72.8559 231.22C71.4971 235.262 70.2633 238.818 69.3694 241.363C68.9227 242.635 68.5613 243.653 68.3123 244.351C68.1878 244.7 68.0915 244.969 68.0266 245.15C67.9942 245.24 67.9697 245.309 67.9534 245.354C67.9453 245.376 67.9392 245.393 67.9353 245.404C67.9333 245.41 67.9319 245.414 67.931 245.416C67.9306 245.417 67.9303 245.418 67.9301 245.419C67.93 245.419 67.93 245.419 67.9299 245.419C67.9299 245.419 67.93 245.419 74.9842 247.966ZM108.154 182.976C112.039 181.496 118.11 180.967 123.922 180.967C126.688 180.967 129.16 181.084 130.937 181.201C131.823 181.259 132.529 181.317 133.004 181.36C133.241 181.381 133.42 181.398 133.535 181.409C133.592 181.415 133.634 181.419 133.658 181.422C133.67 181.423 133.678 181.424 133.681 181.424C133.683 181.424 133.683 181.424 133.683 181.424C133.683 181.424 133.682 181.424 133.682 181.424C133.681 181.424 133.68 181.424 133.68 181.424C133.679 181.424 133.678 181.424 134.484 173.967C135.291 166.511 135.29 166.511 135.288 166.511C135.288 166.51 135.287 166.51 135.286 166.51C135.284 166.51 135.282 166.51 135.279 166.51C135.274 166.509 135.268 166.508 135.261 166.508C135.247 166.506 135.228 166.504 135.204 166.502C135.158 166.497 135.094 166.49 135.013 166.482C134.852 166.466 134.623 166.444 134.334 166.419C133.757 166.367 132.935 166.3 131.923 166.234C129.903 166.101 127.093 165.967 123.922 165.967C117.859 165.967 109.43 166.439 102.815 168.959L108.154 182.976ZM102.815 168.959C94.9285 171.963 90.3009 178.487 87.3073 184.959C84.3395 191.375 82.4278 198.978 80.722 205.595L95.247 209.34C97.0543 202.33 98.6426 196.183 100.922 191.256C103.175 186.385 105.54 183.972 108.154 182.976L102.815 168.959Z" fill="#D4A913"/>
<path fill-rule="evenodd" clip-rule="evenodd" d="M212 181H131L131.164 173.5L131.5 165.5L211.5 167L212 172.5V181Z" fill="#D4A913"/>
</svg>
