<svg width="308" height="673" viewBox="0 0 308 673" fill="none" xmlns="http://www.w3.org/2000/svg">
<path d="M245.234 202.164L220.144 195.947L195.054 189.73L189.956 145.819L222.868 12.9995L263.013 22.9471L303.157 32.8946L270.245 165.714L245.234 202.164Z" fill="#D4A913" stroke="#D4A913" stroke-width="8"/>
<path d="M121 673V0H101.055L93.7418 1.78831L87.0934 5.96103L83.1044 10.1337V54.8415L81.1099 76.8973L83.1044 83.4544L89.0879 88.8193L87.0934 97.7609L76.456 136.508L68.478 168.101L68.1725 169.588C65.2811 183.662 63.8242 197.992 63.8242 212.36V227.912C63.8242 231.347 64.1582 234.773 64.8214 238.143L65.4053 241.11C65.6802 242.507 65.8187 243.927 65.8187 245.351V245.351C65.8187 251.227 63.4631 256.859 59.2789 260.986L54.9516 265.254C53.3354 266.848 51.5739 268.288 49.6902 269.554L36.5659 278.38L34.1259 279.865C23.4923 286.334 14.5339 295.22 7.97802 305.801V305.801L7.63905 306.459C2.61896 316.212 0 327.022 0 337.99V337.99L7.97802 646.175V646.175C14.4767 653.556 23.0398 658.818 32.5605 661.28L52.522 666.443L54.5557 666.861C74.4234 670.943 94.6539 673 114.937 673H121Z" fill="#D9CDBB"/>
<path d="M121 673V0H140.945L148.258 1.78831L154.907 5.96103L158.896 10.1337V54.8415L160.89 76.8973L158.896 83.4544L152.912 88.8193L154.907 97.7609L165.544 136.508L173.522 168.101L173.828 169.588C176.719 183.662 178.176 197.992 178.176 212.36V227.912C178.176 231.347 177.842 234.773 177.179 238.143L176.595 241.11C176.32 242.507 176.181 243.927 176.181 245.351V245.351C176.181 251.227 178.537 256.859 182.721 260.986L187.048 265.254C188.665 266.848 190.426 268.288 192.31 269.554L205.434 278.38L207.874 279.865C218.508 286.334 227.466 295.22 234.022 305.801V305.801L234.361 306.459C239.381 316.212 242 327.022 242 337.99V337.99L234.022 646.175V646.175C227.523 653.556 218.96 658.818 209.44 661.28L189.478 666.443L187.444 666.861C167.577 670.943 147.346 673 127.063 673H121Z" fill="#D9CDBB"/>
<path d="M232.321 179.619C234.043 175.852 232.386 171.402 228.619 169.68C224.851 167.957 220.401 169.615 218.679 173.382L232.321 179.619ZM210.5 205.5L204.094 201.6L210.5 205.5ZM203.739 227.15L210.702 229.936L203.739 227.15ZM185.945 244.352L183.866 237.145L185.945 244.352ZM225.5 176.501C218.679 173.382 218.679 173.382 218.679 173.382C218.679 173.382 218.679 173.382 218.679 173.382C218.679 173.382 218.679 173.383 218.679 173.383C218.678 173.385 218.677 173.387 218.675 173.391C218.672 173.398 218.667 173.409 218.66 173.424C218.646 173.454 218.625 173.501 218.596 173.563C218.539 173.688 218.452 173.875 218.339 174.118C218.113 174.606 217.781 175.319 217.359 176.213C216.514 178.001 215.316 180.506 213.903 183.363C211.053 189.123 207.419 196.137 204.094 201.6L216.907 209.4C220.581 203.363 224.447 195.877 227.348 190.013C228.81 187.058 230.049 184.469 230.923 182.616C231.36 181.69 231.707 180.946 231.946 180.431C232.066 180.174 232.158 179.974 232.221 179.836C232.253 179.768 232.277 179.715 232.294 179.678C232.302 179.66 232.309 179.646 232.313 179.636C232.316 179.631 232.317 179.627 232.319 179.624C232.319 179.623 232.32 179.622 232.32 179.621C232.321 179.62 232.321 179.62 232.321 179.62C232.321 179.619 232.321 179.619 225.5 176.501ZM204.094 201.6C201.24 206.288 200.121 210.754 199.317 214.528C198.48 218.455 198.031 221.227 196.776 224.365L210.702 229.936C212.566 225.278 213.314 220.811 213.987 217.655C214.692 214.345 215.395 211.884 216.907 209.4L204.094 201.6ZM196.776 224.365C195.211 228.276 193.56 230.92 191.67 232.813C189.844 234.642 187.456 236.11 183.866 237.145L188.024 251.558C193.721 249.914 198.434 247.268 202.286 243.41C206.075 239.615 208.677 234.999 210.702 229.936L196.776 224.365ZM183.866 237.145C182.372 237.577 179.677 237.641 176.669 237.378C175.302 237.259 174.082 237.092 173.206 236.956C172.772 236.888 172.43 236.829 172.206 236.788C172.094 236.768 172.012 236.753 171.963 236.743C171.939 236.739 171.923 236.736 171.916 236.734C171.912 236.734 171.911 236.733 171.912 236.734C171.912 236.734 171.913 236.734 171.915 236.734C171.916 236.734 171.916 236.734 171.918 236.735C171.918 236.735 171.919 236.735 171.919 236.735C171.92 236.735 171.921 236.735 170.447 244.089C168.974 251.443 168.975 251.443 168.976 251.443C168.976 251.443 168.977 251.444 168.978 251.444C168.98 251.444 168.982 251.445 168.984 251.445C168.987 251.446 168.992 251.447 168.997 251.448C169.007 251.45 169.02 251.452 169.035 251.455C169.065 251.461 169.104 251.468 169.152 251.478C169.248 251.496 169.38 251.521 169.544 251.55C169.872 251.609 170.332 251.689 170.896 251.777C172.017 251.951 173.581 252.165 175.362 252.321C178.649 252.609 183.702 252.805 188.024 251.558L183.866 237.145Z" fill="#D4A913"/>
<path fill-rule="evenodd" clip-rule="evenodd" d="M177.5 253H64.5C64.5 253 65.4275 248.74 65.4956 246C65.583 242.484 64.6643 237 64.6643 237H177.5C177.5 237 176.394 241.823 176.3 245C176.207 248.147 177.5 253 177.5 253Z" fill="#D4A913"/>
<rect x="35" y="333" width="172" height="222" rx="15" fill="#F1EFEF"/>
</svg>
