<svg width="245" height="648" viewBox="0 0 245 648" fill="none" xmlns="http://www.w3.org/2000/svg">
<path d="M136 647.5V0H66.5L65.6368 0.929586C61.9325 4.91883 59.2342 9.73487 57.7664 14.9771L57.3642 16.4136C56.7908 18.4616 56.5 20.5784 56.5 22.7051V26.0163C56.5 28.2915 57.1488 30.5196 58.3703 32.4391C59.4398 34.1197 60.9121 35.5067 62.6535 36.4741L69 40L74 67.5L82 70L85.5 76L82 181C76.7401 187.575 70.0107 192.824 62.353 196.324L56.5 199L44.5 206C37.8584 209.985 31.7306 214.769 26.2538 220.246L25.5 221L17 231L13.7717 235.641C10.6003 240.2 7.9427 245.095 5.84736 250.238C4.28511 254.073 3.04166 258.03 2.12964 262.069L2.01073 262.595C0.674383 268.513 0 274.562 0 280.629V634L8.5 640L57 647.5H136Z" fill="#E9DFC5"/>
<path d="M109 647.5V0H178.5L179.363 0.929586C183.067 4.91883 185.766 9.73487 187.234 14.9771L187.636 16.4136C188.209 18.4616 188.5 20.5784 188.5 22.7051V26.0163C188.5 28.2915 187.851 30.5196 186.63 32.4391C185.56 34.1197 184.088 35.5067 182.347 36.4741L176 40L171 67.5L163 70L159.5 76L163 181C168.26 187.575 174.989 192.824 182.647 196.324L188.5 199L200.5 206C207.142 209.985 213.269 214.769 218.746 220.246L219.5 221L228 231L231.228 235.641C234.4 240.2 237.057 245.095 239.153 250.238C240.715 254.073 241.958 258.03 242.87 262.069L242.989 262.595C244.326 268.513 245 274.562 245 280.629V634L236.5 640L188 647.5H109Z" fill="#E9DFC5"/>
<rect x="23" y="282" width="199" height="254" rx="15" fill="#F7F0DD"/>
</svg>
