<svg width="266" height="629" viewBox="0 0 266 629" fill="none" xmlns="http://www.w3.org/2000/svg">
<path fill-rule="evenodd" clip-rule="evenodd" d="M133 0H94.3372V129.675H88.1512V137.128H94.3372L88.1512 159.486L72.686 180.353L52.5814 201.22L27.8372 223.578L6.18605 235.502L0 242.955V277.237L15.4651 618.566L27.8372 629H133H238.163L250.535 617.076L266 275.746V241.464L259.814 234.012L238.163 222.088L213.419 199.73L193.314 178.863L177.849 157.995L171.663 135.637H177.849V128.185H171.663V0H133ZM74.5273 253.972L83.6885 250.385C86.7485 249.187 102.39 248.16 115.358 247.308L115.361 247.308L115.363 247.308C115.769 247.281 116.173 247.254 116.573 247.228C127.441 246.514 138.558 246.53 149.422 247.296C161.527 248.15 176.144 249.181 179.218 250.385L188.38 253.972C208.901 262.007 224.019 279.243 228.825 300.083C229.892 304.712 230.43 309.44 230.43 314.181V383.064L225.791 457.59L222.652 497.929C221.712 510.007 214.69 520.874 203.859 527.015C197.967 530.355 191.256 532.116 184.421 532.116H129.907H78.4864C71.6509 532.116 64.9398 530.355 59.048 527.015C48.2166 520.874 41.1952 510.007 40.2554 497.929L37.1163 457.59L32.4767 383.064V314.181C32.4767 309.44 33.0152 304.712 34.0824 300.083C38.8875 279.243 54.0058 262.007 74.5273 253.972Z" fill="#F4E0C1"/>
<path d="M83.6885 250.385L74.5273 253.972C54.0058 262.007 38.8875 279.243 34.0824 300.083C33.0152 304.712 32.4767 309.44 32.4767 314.181V383.064L37.1163 457.59L40.2554 497.929C41.1952 510.007 48.2166 520.874 59.048 527.015C64.9398 530.355 71.6509 532.116 78.4864 532.116H129.907H184.421C191.256 532.116 197.967 530.355 203.859 527.015C214.69 520.874 221.712 510.007 222.652 497.929L225.791 457.59L230.43 383.064V314.181C230.43 309.44 229.892 304.712 228.825 300.083C224.019 279.243 208.901 262.007 188.38 253.972L179.218 250.385C176.144 249.181 161.527 248.15 149.422 247.296C138.558 246.53 127.441 246.514 116.573 247.228C116.173 247.254 115.769 247.281 115.363 247.308L115.361 247.308L115.358 247.308C102.39 248.16 86.7485 249.187 83.6885 250.385Z" fill="#C9B9A0"/>
</svg>
