<svg width="636" height="366" viewBox="0 0 636 366" fill="none" xmlns="http://www.w3.org/2000/svg">
<path d="M13.8074 2.40208C9.69629 5.14426 4.65684 17.8269 1.47403 33.5945C-0.913084 45.363 -0.382615 60.445 2.93281 70.8425C10.2268 94.1511 31.976 112.204 63.2736 121.002C78.7898 125.229 89.5318 126.6 154.116 132.085C189.127 135.055 218.303 137.798 218.834 138.255C219.364 138.712 216.049 145.91 211.142 154.251C206.368 162.592 202.522 170.59 202.522 171.961C202.522 173.332 203.848 175.96 205.439 177.674C206.898 179.387 210.744 184.986 213.662 190.128C216.712 195.155 222.812 203.724 227.321 209.094C238.196 222.12 247.877 239.03 254.905 257.425C263.393 279.591 266.311 293.988 267.371 318.211L268.167 338.777L277.318 351.117C282.357 357.858 287.529 363.914 288.855 364.485C292.834 366.427 306.228 365.742 312.196 363.342C317.501 361.286 318.031 361.286 322.142 363.114C327.447 365.399 342.963 366.313 346.809 364.599C348.268 363.914 353.838 357.515 359.01 350.546L368.426 337.634L367.497 322.21C365.376 283.705 380.096 243.486 409.007 208.523C415.24 200.982 422.136 191.499 424.39 187.385C426.512 183.272 429.43 178.702 430.756 177.217C432.215 175.731 433.276 173.56 433.276 172.418C433.276 171.161 429.164 163.049 423.992 154.251L414.709 138.369L419.086 137.798C421.34 137.455 448.129 135.055 478.365 132.542C540.563 127.286 549.183 126.372 563.24 123.401C614.563 112.318 641.087 80.7829 634.986 38.279C632.334 20.5691 625.703 3.65891 620.531 1.2595C616.818 -0.45437 612.176 -0.225854 609.259 1.60227C607.932 2.51633 604.882 8.00071 602.495 13.8279C592.416 38.279 578.094 55.7605 561.914 62.8445C547.061 69.3572 509.928 72.4421 444.548 72.4421C399.591 72.5564 394.154 72.3279 379.566 70.0427C370.813 68.6716 353.307 66.9577 340.709 66.1579C313.788 64.5583 281.827 66.0437 256.232 70.0427C241.644 72.3279 236.206 72.5564 190.586 72.4421C130.378 72.3279 95.4996 69.9284 77.7289 64.5583C60.7539 59.4167 43.5137 39.7644 33.4348 14.2849C28.1301 0.802466 21.7645 -3.0823 13.8074 2.40208ZM36.0871 58.2741C42.9832 66.2722 54.5209 75.07 63.5389 78.9548C81.3096 86.7243 114.066 90.0378 179.712 91.0661L226.393 91.7517V105.92C226.393 113.575 225.995 119.973 225.597 119.973C216.844 119.973 88.6035 107.862 80.9117 106.262C42.5854 98.4929 23.6211 81.5827 21.234 52.904C20.173 39.5359 21.234 38.1648 26.8039 46.1628C29.3236 49.8191 33.5674 55.3034 36.0871 58.2741ZM614.563 52.447C611.911 81.8113 592.284 99.1784 553.161 106.719C546.398 107.976 417.494 119.973 410.2 119.973C409.802 119.973 409.405 113.575 409.405 105.691V91.4089H440.304C509.265 91.4089 554.222 87.0671 572.922 78.612C583.664 73.8132 599.312 60.2165 607.004 48.905C614.165 38.5075 615.757 39.3074 614.563 52.447ZM311.135 281.191C315.379 284.162 321.347 283.933 325.193 280.506L328.508 277.763V83.9822L344.157 84.782C352.644 85.239 365.906 86.6101 373.598 87.6384L387.523 89.695L388.849 134.256L397.071 148.195L405.426 162.249L399.723 164.648C391.766 168.19 383.809 172.989 373.333 180.758C361.397 189.671 361.264 191.956 371.741 204.181L379.168 212.865L371.078 227.261C361.662 244.172 353.705 264.167 349.594 281.762C347.207 291.589 346.544 298.444 346.544 313.755L346.279 333.293L341.372 340.377C336.332 347.346 333.415 348.832 330.099 345.975C329.171 345.175 328.508 343.347 328.508 341.976C328.508 338.091 322.805 333.635 317.899 333.635C312.992 333.635 307.289 338.091 307.289 341.976C307.289 343.347 306.626 345.175 305.698 345.975C302.382 348.832 299.465 347.346 294.16 339.92C288.855 332.721 288.723 332.379 288.723 322.21C288.723 290.903 279.44 255.712 263.658 226.804C259.945 220.063 256.895 214.008 256.895 213.436C256.895 212.979 260.21 208.637 264.189 203.953C274.533 191.956 274.4 189.671 262.465 180.758C251.988 172.989 244.031 168.19 236.074 164.648L230.371 162.249L238.726 148.195L246.948 134.256L248.275 89.695L262.199 87.6384C269.891 86.6101 283.02 85.239 291.375 84.782L306.626 83.9822L307.952 279.02L311.135 281.191ZM399.591 188.185C396.143 193.67 392.562 196.869 390.971 196.069C388.318 194.584 389.512 192.641 395.214 188.871C398.265 186.928 400.917 185.215 401.182 185.215C401.315 185.1 400.652 186.471 399.591 188.185ZM245.888 194.127C245.357 197.326 242.705 196.526 239.257 192.07C237.267 189.442 235.676 187.157 235.676 186.814C235.676 186.357 238.063 187.5 240.981 189.328C243.898 191.042 246.153 193.213 245.888 194.127Z" fill="#682D0F"/>
<path d="M299.995 281.5C297.078 283.899 296.68 285.27 296.68 292.354C296.68 299.438 297.078 300.809 299.995 303.209C301.985 305.037 304.77 306.065 307.289 306.065C309.809 306.065 312.594 305.037 314.583 303.209L317.899 300.466L321.214 303.209C325.458 306.979 331.558 306.979 335.802 303.209C338.72 300.809 339.117 299.438 339.117 292.354C339.117 285.27 338.72 283.899 335.802 281.5C333.813 279.672 331.028 278.643 328.508 278.643C325.988 278.643 323.203 279.672 321.214 281.5L317.899 284.242L314.583 281.5C312.594 279.672 309.809 278.643 307.289 278.643C304.77 278.643 301.985 279.672 299.995 281.5Z" fill="#682D0F"/>
</svg>
