<svg width="776" height="743" viewBox="0 0 776 743" fill="none" xmlns="http://www.w3.org/2000/svg">
<rect x="86" y="83" width="627" height="511" fill="#C3AE8D"/>
<rect x="86" y="83" width="627" height="511" fill="#C3AE8D"/>
<rect x="86" y="83" width="627" height="511" fill="#C3AE8D"/>
<path d="M244.894 219.634C245.615 219.99 246.336 220.345 247.06 220.702C248.238 221.283 249.424 221.868 250.633 222.464C250.607 222.472 250.581 222.479 250.554 222.487C249.949 222.666 249.343 222.845 248.72 223.03C248.509 223.403 248.299 223.777 248.082 224.162C247.918 223.994 247.762 223.835 247.614 223.684C247.54 223.609 247.469 223.536 247.399 223.464C246.225 222.263 245.601 221.604 245.27 221.123C244.894 220.577 244.894 220.259 244.894 219.634Z" fill="#D4A913"/>
<path fill-rule="evenodd" clip-rule="evenodd" d="M262.291 278.62C261.523 278.503 260.756 278.38 259.991 278.251C260.749 278.385 261.515 278.507 262.291 278.62ZM280.597 280.31C275.82 280.131 271.112 279.716 266.335 279.127L263.983 278.85C263.413 278.777 262.849 278.701 262.291 278.62C268.32 279.54 274.445 280.093 280.597 280.31ZM284.349 280.401C283.098 280.384 281.847 280.354 280.597 280.31C281.842 280.357 283.092 280.387 284.349 280.401ZM284.349 280.401L286.137 280.37C286.595 280.372 287.025 280.383 287.432 280.404C287.026 280.383 286.597 280.373 286.139 280.37L284.349 280.401ZM559.267 204.377C565.351 203.367 571.501 203.713 577.115 206.618C571.78 203.857 565.339 203.684 559.267 204.377ZM559.267 204.377C558.681 204.443 558.098 204.518 557.52 204.6L556.072 204.92C553.302 205.527 551.202 205.987 549.158 206.596C544.031 208.125 539.261 210.594 525.163 218.681L521.639 220.766C523.564 219.68 525.491 218.596 527.418 217.512L529.055 216.588C532.071 214.894 535.103 213.257 538.218 211.711L539.078 211.491C545.112 208.477 552.031 205.578 559.267 204.377ZM250.554 222.487L250.633 222.464L247.06 220.702C246.341 220.343 245.619 219.987 244.894 219.634C244.894 220.37 244.894 220.627 245.27 221.123C245.601 221.604 246.225 222.263 247.399 223.464L247.614 223.684L248.082 224.162L248.72 223.03L250.554 222.487ZM409.322 258.6L408.6 258.653C408.696 258.655 408.791 258.651 408.887 258.645C409.032 258.635 409.177 258.617 409.322 258.6ZM409.322 258.6C409.564 258.571 409.806 258.542 410.048 258.547L409.322 258.6ZM308.634 285.587C303.187 282.111 298.094 278.443 293.234 274.335C292.3 273.55 291.359 272.796 290.397 272.057C295.934 277.046 302.066 281.566 308.634 285.587ZM198.61 234.032C199.879 237.498 201.803 240.762 204.214 243.784C202.999 242.224 201.888 240.589 200.895 238.876C200.066 237.285 199.274 235.671 198.61 234.032ZM202.024 215.589C200.159 217.171 198.589 219.007 197.483 221.155C196.073 225.617 196.935 229.902 198.61 234.032C197.46 230.896 196.847 227.595 196.895 224.162C197.266 220.544 199.256 218.028 202.024 215.589ZM203.929 214.128C203.569 214.366 203.209 214.618 202.848 214.884C202.567 215.119 202.292 215.354 202.024 215.589C202.63 215.076 203.267 214.589 203.929 214.128ZM203.929 214.128C205.557 212.993 207.337 212.008 209.185 211.146C215.3 209.336 221.327 211.167 226.88 213.617C218.464 209.904 211.316 209.224 203.929 214.128ZM252.658 240.107C255.448 243.941 258.424 247.678 261.48 251.356C258.402 247.699 255.456 243.952 252.658 240.107Z" fill="#D4A913"/>
<path d="M303.559 225.86C307.839 226.241 312.037 226.825 316.272 227.487C352.905 233.03 390.662 233.195 427.667 231.041C429.16 230.954 430.653 230.871 432.146 230.787C444.166 230.105 455.957 228.871 467.816 226.981L469.224 226.757C470.478 226.556 471.731 226.351 472.985 226.144C474.797 225.899 476.451 225.8 478.278 225.86C478.711 227.65 479.133 229.443 479.553 231.236L479.922 232.757C480.629 235.807 480.96 238.592 480.828 241.705C476.113 243.787 471.243 245.055 466.162 246.233L464.789 246.562C457.448 248.31 450.033 249.542 442.529 250.583L440.101 250.93C424.362 253.022 408.539 253.211 392.662 253.172C391.344 253.168 390.026 253.168 388.708 253.169C387.371 253.17 386.035 253.172 384.698 253.175C380.875 253.183 377.064 253.174 373.259 253.115C365.533 252.996 357.832 252.676 350.108 251.892L348.757 251.758C346.224 251.502 343.702 251.199 341.181 250.866L338.937 250.573C326.565 248.906 314.762 246.431 302.921 242.837L301.008 242.271C300.866 238.408 301.361 234.97 302.283 231.201L302.652 229.634C302.949 228.375 303.251 227.117 303.559 225.86Z" fill="#D4A913"/>
<path d="M348.593 139.344C349.229 139.552 349.598 139.672 349.907 139.868C350.333 140.138 350.643 140.552 351.383 141.537C355.006 153.663 351.767 168.464 345.325 179.376C344.889 179.928 344.652 180.228 344.341 180.445C343.97 180.703 343.496 180.844 342.456 181.151C341.356 181.151 340.888 181.151 340.455 181.044C340.134 180.964 339.833 180.826 339.308 180.586C338.24 178.803 338.63 177.342 339.268 175.492C339.758 174.555 340.264 173.624 340.782 172.698C344.813 165.094 344.579 157.015 344.282 148.822C344.239 147.557 344.213 146.293 344.187 145.027C344.162 144.288 344.136 143.548 344.11 142.786C344.25 141.803 344.314 141.353 344.532 140.97C344.715 140.646 345.009 140.372 345.551 139.864C346.204 139.582 346.546 139.434 346.906 139.365C347.301 139.289 347.719 139.307 348.593 139.344Z" fill="#4B342C"/>
<path d="M434.638 139.415C435.377 139.616 435.765 139.722 436.105 139.9C436.481 140.095 436.799 140.377 437.467 140.971C437.548 142.409 437.553 143.785 437.502 145.22C437.486 146.103 437.47 146.987 437.455 147.87C437.424 149.253 437.389 150.636 437.345 152.019C437.099 160.39 438.146 167.747 442.599 175.304C443.288 176.8 443.371 177.852 443.206 179.454C442.848 179.984 442.668 180.25 442.429 180.462C442.19 180.674 441.891 180.833 441.293 181.152C440.404 181.125 439.94 181.111 439.483 181.049C438.983 180.98 438.494 180.853 437.467 180.586C430.758 172.792 429.728 161.862 429.656 152.431C429.65 151.889 429.644 151.346 429.638 150.788C429.656 147.321 429.744 143.696 431.091 140.405C432.191 139.754 432.658 139.477 433.168 139.387C433.544 139.32 433.944 139.354 434.638 139.415Z" fill="#4B342C"/>
<path d="M244.894 219.634C245.615 219.99 246.336 220.345 247.06 220.702C248.238 221.283 249.424 221.868 250.633 222.464C250.607 222.472 250.581 222.479 250.554 222.487C249.949 222.666 249.343 222.845 248.72 223.03C248.509 223.403 248.299 223.777 248.082 224.162C247.918 223.994 247.762 223.835 247.614 223.684C247.54 223.609 247.469 223.536 247.399 223.464C246.225 222.263 245.601 221.604 245.27 221.123C244.894 220.577 244.894 220.259 244.894 219.634Z" fill="#4B342C"/>
<path fill-rule="evenodd" clip-rule="evenodd" d="M262.291 278.62C261.523 278.503 260.756 278.38 259.991 278.251C260.749 278.385 261.515 278.507 262.291 278.62ZM280.597 280.31C275.82 280.131 271.112 279.716 266.335 279.127L263.983 278.85C263.413 278.777 262.849 278.701 262.291 278.62C268.32 279.54 274.445 280.093 280.597 280.31ZM284.349 280.401C283.098 280.384 281.847 280.354 280.597 280.31C281.842 280.357 283.092 280.387 284.349 280.401ZM287.432 280.404C287.025 280.383 286.595 280.372 286.137 280.37L284.349 280.401L286.139 280.37C286.597 280.373 287.026 280.383 287.432 280.404ZM577.115 206.618C571.501 203.713 565.351 203.367 559.267 204.377C558.681 204.443 558.098 204.518 557.52 204.6L556.072 204.92C553.302 205.527 551.202 205.987 549.158 206.596C544.031 208.125 539.261 210.594 525.163 218.681L521.639 220.766C523.564 219.68 525.491 218.596 527.418 217.512L529.055 216.588C532.071 214.894 535.103 213.257 538.218 211.711L539.078 211.491C545.112 208.477 552.031 205.578 559.267 204.377C565.339 203.684 571.78 203.857 577.115 206.618ZM250.554 222.487L250.633 222.464L247.06 220.702C246.341 220.343 245.619 219.987 244.894 219.634C244.894 220.37 244.894 220.627 245.27 221.123C245.601 221.604 246.225 222.263 247.399 223.464L247.614 223.684L248.082 224.162L248.72 223.03L250.554 222.487ZM409.322 258.6L408.6 258.653C408.696 258.655 408.791 258.651 408.887 258.645C409.032 258.635 409.177 258.617 409.322 258.6ZM308.634 285.587C303.187 282.111 298.094 278.443 293.234 274.335C292.3 273.55 291.359 272.796 290.397 272.057C295.934 277.046 302.066 281.566 308.634 285.587ZM409.322 258.6C409.564 258.571 409.806 258.542 410.048 258.547L409.322 258.6ZM198.61 234.032C199.879 237.498 201.803 240.762 204.214 243.784C202.999 242.224 201.888 240.589 200.895 238.876C200.066 237.285 199.274 235.671 198.61 234.032ZM202.024 215.589C200.159 217.171 198.589 219.007 197.483 221.155C196.073 225.617 196.935 229.902 198.61 234.032C197.46 230.896 196.847 227.595 196.895 224.162C197.266 220.544 199.256 218.028 202.024 215.589ZM203.929 214.128C203.569 214.366 203.209 214.618 202.848 214.884C202.567 215.119 202.292 215.354 202.024 215.589C202.63 215.076 203.267 214.589 203.929 214.128ZM226.88 213.617C221.327 211.167 215.3 209.336 209.185 211.146C207.337 212.008 205.557 212.993 203.929 214.128C211.316 209.224 218.464 209.904 226.88 213.617ZM252.658 240.107C255.448 243.941 258.424 247.678 261.48 251.356C258.402 247.699 255.456 243.952 252.658 240.107ZM349.907 139.868C350.333 140.138 350.643 140.552 351.383 141.537C355.006 153.663 351.767 168.464 345.325 179.376C344.889 179.928 344.652 180.228 344.341 180.445C343.97 180.703 343.496 180.844 342.456 181.151C341.356 181.151 340.888 181.151 340.455 181.044C340.134 180.964 339.833 180.826 339.308 180.586C338.24 178.803 338.63 177.342 339.268 175.492C339.758 174.555 340.264 173.624 340.782 172.698C344.813 165.094 344.579 157.015 344.282 148.822C344.239 147.557 344.213 146.293 344.187 145.027L344.11 142.786C344.25 141.803 344.314 141.353 344.532 140.97C344.715 140.646 345.009 140.372 345.551 139.864C346.204 139.582 346.546 139.434 346.906 139.365C347.301 139.289 347.719 139.307 348.593 139.344C349.229 139.552 349.598 139.672 349.907 139.868ZM436.105 139.9C436.481 140.095 436.799 140.377 437.467 140.971C437.548 142.409 437.553 143.785 437.502 145.22C437.486 146.103 437.47 146.987 437.455 147.87C437.424 149.253 437.389 150.636 437.345 152.019C437.099 160.39 438.146 167.747 442.599 175.304C443.288 176.8 443.371 177.852 443.206 179.454C442.848 179.984 442.668 180.25 442.429 180.462C442.19 180.674 441.891 180.833 441.293 181.152C440.404 181.125 439.94 181.111 439.483 181.049C438.983 180.98 438.494 180.853 437.467 180.586C430.758 172.792 429.728 161.862 429.656 152.431L429.638 150.788C429.656 147.321 429.744 143.696 431.091 140.405C432.191 139.754 432.658 139.477 433.168 139.387C433.544 139.32 433.944 139.354 434.638 139.415C435.377 139.616 435.765 139.722 436.105 139.9Z" fill="#4B342C"/>
<path fill-rule="evenodd" clip-rule="evenodd" d="M372.397 128.867C370.521 127.4 368.648 125.936 366.687 124.559C358.328 119.69 347.297 118.843 338.63 123.427C333.227 126.813 330.521 130.52 327.544 133.48C322.056 140.97 318.564 148.822 307.903 180.833L307.774 181.316C307.322 183.012 306.871 184.706 306.358 186.389C303.149 196.682 300.752 207.097 298.41 217.567C298.123 218.848 297.836 220.129 297.545 221.409C297.137 223.194 296.73 224.979 296.329 226.765L295.907 228.654L295.887 228.738C295.212 231.689 294.558 234.547 294.552 237.569L294.631 239.442C291.33 238.032 288.184 236.505 285.067 234.795L283.432 233.889C279.189 231.548 274.982 229.164 270.805 226.732C268.33 225.289 265.796 223.748 263.206 222.174C250.768 214.611 237.062 206.278 222.576 204.354C214.342 203.86 207.439 204.255 200.611 208.785C195.276 212.861 190.623 217.7 189.856 224.135C189.6 235.178 195.48 244.859 203.844 252.796C219.25 266.626 238.971 274.703 259.991 278.251C260.756 278.38 261.523 278.503 262.291 278.62C262.849 278.701 263.413 278.777 263.983 278.85L266.335 279.127C271.112 279.716 275.82 280.131 280.597 280.31C281.847 280.354 283.098 280.384 284.349 280.401L286.137 280.37C286.595 280.372 287.025 280.383 287.432 280.404C287.84 280.426 288.224 280.458 288.589 280.503C290.745 280.77 292.256 281.494 294.182 283.167L294.218 283.198L294.268 283.242L294.272 283.245L294.274 283.247C294.657 283.594 294.954 283.864 295.26 284.122C296.287 284.99 297.432 285.749 302.396 289.042L302.398 289.043L303.559 289.809C317.847 299.285 334.491 306.515 351.866 310.191C352.768 310.376 353.67 310.562 354.572 310.748C365 313.111 375.321 314.381 386.086 314.348C387.865 314.334 389.643 314.321 391.423 314.323C401.811 314.344 412.284 314.071 422.436 311.936L424.236 311.527C443.004 307.367 460.252 300.965 476.214 291.201L477.6 290.34L477.721 290.265L477.907 290.151L478.154 289.998C480.086 288.808 482.011 287.623 483.685 286.148C487.732 283.446 489.786 282.074 492.096 281.344C494.475 280.592 497.128 280.521 502.511 280.376C509.604 280.129 516.601 279.179 523.552 277.925C547.26 273.14 571.041 263.792 584.767 245.101C589.785 237.661 593.48 229.453 591.343 220.66C588.291 214.856 584.805 210.812 578.615 207.385L577.115 206.618C571.78 203.857 565.339 203.684 559.267 204.377C552.031 205.578 545.112 208.477 539.078 211.491L538.218 211.711C535.103 213.257 532.071 214.894 529.055 216.588L527.418 217.512C525.491 218.596 523.564 219.68 521.639 220.766L525.163 218.681C521.645 220.699 517.545 223.067 512.715 225.858L512.712 225.86L512.114 226.205L511.291 226.682C503.438 231.226 495.625 235.748 487.205 239.442L487.209 239.2C487.24 237.253 487.269 235.366 486.993 233.429L486.687 232.085L486.326 230.453C486.057 229.256 485.8 228.056 485.554 226.854C482.224 210.593 477.969 194.597 473.148 178.638L472.539 176.624C467.572 160.046 461.878 141.797 449.304 128.308C444.644 123.873 440.069 120.933 433.171 120.421C424.073 120.074 417.243 122.541 410.504 127.906L410.112 128.218C405.639 131.788 401.695 134.934 395.382 135.407C385.996 135.866 379.534 134.445 372.397 128.867ZM392.943 141.716C383.79 142.058 375.896 139.643 369.016 134.228C368.702 133.979 368.39 133.73 368.078 133.48C365.65 131.539 363.246 129.617 360.408 128.145C355.535 126.374 349.4 125.9 344.369 127.389C337.298 130.925 332.819 137.692 329.471 144.015L328.427 146.064C322.396 157.385 318.124 169.289 314.786 181.44C314.545 182.317 314.301 183.195 314.054 184.071C313.743 185.161 313.433 186.251 313.124 187.341C312.555 189.383 311.986 191.425 311.4 193.463C308.836 202.336 306.413 211.059 305.472 220.2C318.633 222.278 331.745 224.203 345.084 225.128L347.557 225.294C361.74 226.289 375.914 226.536 390.136 226.562C391.491 226.564 392.845 226.567 394.2 226.571C406.101 226.614 417.904 226.291 429.77 225.435C430.986 225.347 432.202 225.262 433.418 225.179C442.474 224.578 451.521 223.906 460.511 222.752L462.655 222.464C467.365 221.836 471.837 220.955 476.365 219.634C476.365 218.788 476.365 218.221 476.324 217.657C476.241 216.512 475.99 215.377 475.231 211.94L474.731 209.731C472.958 201.88 470.897 194.111 468.613 186.364L468.075 184.547L467.771 183.51C463.011 167.283 457.912 149.899 447.111 135.938L446.275 134.887C444.855 133.1 443.426 131.52 441.555 130.077L440.018 129.086C436.962 127.08 434.073 126.613 430.294 126.469C423.306 126.672 418.823 129.113 413.874 133.331C408.082 138.313 400.983 141.125 392.943 141.716ZM259.879 227.628L261.509 228.573C263.768 229.885 266.025 231.198 268.28 232.516C300.209 251.127 334.724 257.564 371.788 258.657C376.292 258.79 380.838 258.847 385.417 258.835C387.738 258.828 390.056 258.828 392.377 258.835C397.79 258.848 403.199 258.8 408.6 258.653L409.322 258.6C409.564 258.571 409.806 258.542 410.048 258.547L409.322 258.6C409.177 258.617 409.032 258.635 408.887 258.645C419.563 258.347 430.212 257.658 440.815 256.278L442.249 256.097C468.58 252.747 491.598 245.486 513.717 232.429C517.377 230.274 521.071 228.164 524.766 226.057C525.692 225.528 526.617 224.998 527.541 224.467L529.928 223.596C530.096 223.649 530.246 223.697 530.384 223.74C531.498 224.087 531.767 224.125 533.215 224.153C532.329 225.166 531.476 226.205 530.659 227.284L529.826 228.4L527.986 230.835C526.358 233.001 524.722 235.163 523.082 237.323L522.1 238.615C516.359 246.168 510.529 253.475 503.685 260.277C502.667 261.283 501.671 262.293 500.696 263.332C497.929 266.005 496.544 267.343 495.092 268.62C493.638 269.898 492.116 271.115 489.071 273.55L489.069 273.551L489.069 273.552C458.288 298.087 420.793 309.798 379.44 307.919C354.823 306.12 329.521 298.373 308.634 285.587C302.066 281.566 295.934 277.046 290.397 272.057C289.915 271.687 289.427 271.321 288.932 270.957C283.392 266.683 278.497 261.716 273.96 256.577C273.96 256.577 270.24 258.661 267.929 258.683C272.042 263.157 276.35 267.492 280.822 271.701C282.695 273.472 283.063 273.82 283.136 274.212C283.153 274.308 283.153 274.406 283.153 274.529C271.765 274.158 260.444 272.676 249.685 269.818C247.424 269.218 245.188 268.557 242.981 267.833C230.179 263.631 218.365 257.304 208.428 248.375C206.903 246.917 205.49 245.385 204.214 243.784C201.803 240.762 199.879 237.498 198.61 234.032C196.935 229.902 196.073 225.617 197.483 221.155C198.589 219.007 200.159 217.171 202.024 215.589C202.292 215.354 202.567 215.119 202.848 214.884C203.209 214.618 203.569 214.366 203.929 214.128C205.557 212.993 207.337 212.008 209.185 211.146C215.3 209.336 221.327 211.167 226.88 213.617C238.185 219.479 245.31 229.634 252.077 239.279L252.658 240.107C255.448 243.941 258.424 247.678 261.48 251.356C263.57 253.84 265.721 256.281 267.929 258.683C270.24 258.661 273.96 256.577 273.96 256.577C273.097 255.599 272.247 254.616 271.408 253.629C270.635 252.731 269.85 251.841 269.06 250.954C264.338 245.617 260.092 240.028 255.854 234.384C254.794 232.974 253.733 231.564 252.669 230.156C252.014 229.289 251.361 228.42 250.71 227.55C249.647 226.141 248.574 224.78 247.399 223.464C246.225 222.263 245.601 221.604 245.27 221.123C244.894 220.627 244.894 220.37 244.894 219.634C245.619 219.987 246.341 220.343 247.06 220.702L250.633 222.464L250.554 222.487C253.706 224.132 256.807 225.843 259.879 227.628ZM316.272 227.487C312.037 226.825 307.839 226.241 303.559 225.86C303.251 227.117 302.949 228.375 302.652 229.634L302.283 231.201C301.361 234.97 300.866 238.408 301.008 242.271L302.921 242.837C314.762 246.431 326.565 248.906 338.937 250.573L341.181 250.866C343.702 251.199 346.224 251.502 348.757 251.758L350.108 251.892C357.832 252.676 365.533 252.996 373.259 253.115C377.064 253.174 380.875 253.183 384.698 253.175C386.035 253.172 387.371 253.17 388.708 253.169C390.026 253.168 391.344 253.168 392.662 253.172C408.539 253.211 424.362 253.022 440.101 250.93L442.529 250.583C450.033 249.542 457.448 248.31 464.789 246.562L466.162 246.233C471.243 245.055 476.113 243.787 480.828 241.705C480.96 238.592 480.629 235.807 479.922 232.757L479.553 231.236C479.133 229.443 478.711 227.65 478.278 225.86C476.451 225.8 474.797 225.899 472.985 226.144C471.731 226.351 470.478 226.556 469.224 226.757L467.816 226.981C455.957 228.871 444.166 230.105 432.146 230.787C430.653 230.871 429.16 230.954 427.667 231.041C390.662 233.195 352.905 233.03 316.272 227.487ZM584.767 222.464C583.216 217.706 579.054 214.547 574.445 212.03C567.921 209.071 563.713 207.163 559.801 207.558C552.694 208.275 546.562 216.59 529.291 240.008C522.296 249.596 514.51 258.82 505.897 267.314C503.657 269.497 501.472 271.711 499.321 273.963C504.564 274.091 509.624 273.961 514.806 273.214L517.175 272.831C540.122 269.171 562.501 261.177 577.075 244.429C582.25 238.056 586.028 230.493 584.767 222.464Z" fill="#4B342C"/>
<path fill-rule="evenodd" clip-rule="evenodd" d="M116 0H599L611.5 13H621.5H641.5L652 27V13L668.31 18V0H750L757 18L750 27L764 42.5L757 65.5L776 73V124.5L736 147L757 163.5L726.5 192H757L750 233.5L776 210V476.5L750 497L764 508L744 520.5L764 533.5L757 552.5L776 545.5V743H118.5V724H91.5L70 705L61 733.5L46 724L37.5 743H0V497L17 491.5L30 497L46 486.5L30 471V444.5H11.5L17 430.5L0 419.5V163.5L30 147L0 112.715V0H63L64.5 11.5L79.5 18L94.5 27V18H110.857L116 0ZM668.31 112.715H381.698H110.857V497H381.698H668.31V112.715Z" fill="#D2C1A7"/>
<path d="M535.249 326.488C513.291 318.68 501.407 329.54 496.665 335.124C491.713 341.001 493.863 351.032 495.97 346.766C499.089 337.781 515.315 337.781 520.541 346.766C525.788 355.76 517.317 365.677 505.369 367.119C489.691 369.012 483.18 357.371 473.76 347.905C464.341 338.449 450.096 327.976 429.445 322.636C416.043 319.17 397.984 321.949 386.415 331.574C374.867 321.949 356.786 319.17 343.384 322.636C322.733 327.976 308.509 338.449 299.069 347.905C289.67 357.371 283.159 369.012 267.46 367.119C255.533 365.677 247.041 355.76 252.288 346.766C257.514 337.781 273.74 337.781 276.88 346.766C278.966 351.032 281.115 341.001 276.163 335.124C271.443 329.539 259.537 318.68 237.579 326.488C216.192 334.089 207.973 362.193 218.109 381.764C232.228 409.058 272.328 422.884 314.347 419.427C344.122 416.978 367.513 401.334 386.415 375.727C405.316 401.334 428.707 416.979 458.482 419.427C500.501 422.883 540.601 409.058 554.72 381.764C564.856 362.193 556.638 334.089 535.249 326.488Z" fill="#4B342C"/>
</svg>
