<svg width="1625" height="369" viewBox="0 0 1625 369" fill="none" xmlns="http://www.w3.org/2000/svg">
<path d="M4 22.9952C4 22.9952 66.4999 72.3289 176 111.646C285.5 150.963 291.5 149.963 367 166.136C429.589 179.543 472 187.193 524 192.879C567.163 197.598 611.268 200.487 666.604 204.221C733.802 208.755 786.382 210.528 839 210.277C891.456 210.027 943.949 207.765 1011 204.221C1061.8 201.536 1100.98 200.928 1140 198.457C1182.82 195.746 1225.44 190.792 1283 178.386C1393 154.677 1408.44 151.533 1480.33 111.646C1540.16 78.4511 1573.33 53.0725 1621 4" stroke="#682D0F" stroke-width="10"/>
<path d="M318.589 317.537L305.711 154.049L412.505 177.993L318.589 317.537Z" fill="#682D0F"/>
<path d="M477.013 344.082L444.841 183.272L553.721 194.391L477.013 344.082Z" fill="#682D0F"/>
<path d="M618.013 360.078L585.841 199.268L694.721 210.387L618.013 360.078Z" fill="#682D0F"/>
<path d="M772.469 365.845L726.909 208.302L836.338 210.246L772.469 365.845Z" fill="#682D0F"/>
<path d="M914.469 365.845L868.909 208.302L978.338 210.246L914.469 365.845Z" fill="#682D0F"/>
<path d="M1069.29 362.219L1014.02 207.815L1123.36 202.949L1069.29 362.219Z" fill="#682D0F"/>
<path d="M1224.79 348.294L1156.4 199.234L1264.91 184.954L1224.79 348.294Z" fill="#682D0F"/>
<path d="M1373.88 315.509L1290.83 174.087L1397.35 148.963L1373.88 315.509Z" fill="#682D0F"/>
<path d="M1541.9 259.062L1425.88 143.128L1522.63 91.9775L1541.9 259.062Z" fill="#682D0F"/>
<path d="M171.959 278.056L174.587 114.083L278.641 148.006L171.959 278.056Z" fill="#682D0F"/>
</svg>
