<svg width="300" height="300" viewBox="0 0 300 300" fill="none" xmlns="http://www.w3.org/2000/svg">
<rect width="300" height="300" fill="#4B342C"/>
<path fill-rule="evenodd" clip-rule="evenodd" d="M147.073 15C159.551 15.1196 164.982 21.6328 163.364 34.5396C162.099 37.9157 160.019 40.5692 157.125 42.5002C156.663 43.2239 156.663 43.9476 157.125 44.6712C167.552 64.1489 178.066 83.5681 188.667 102.928C211.261 108.583 233.906 114.011 256.604 119.211C261.371 107.7 269.227 104.685 280.174 110.165C286.609 117.863 286.609 125.583 280.174 133.323C275.89 136.546 271.268 137.27 266.309 135.494C264.384 134.388 262.535 133.423 260.764 132.599C246.01 149.055 231.336 165.579 216.743 182.172C218.588 206.275 220.668 230.399 222.982 254.541C226.257 255.845 229.608 257.172 233.034 258.521C238.229 262.971 239.962 268.64 238.234 275.528C233.742 284.651 226.925 287.184 217.783 283.127C215.086 281.248 213.123 278.715 211.891 275.528C211.699 271.36 211.583 267.258 211.544 263.225C191.844 253.958 172.202 244.55 152.619 235.001C131.301 244.318 110.042 253.847 88.842 263.587C90.9598 272.263 88.4184 279.017 81.2164 283.85C67.7143 286.879 61.1286 281.21 61.4593 266.844C64.3737 259.111 69.8037 255.493 77.7503 255.988C80.4455 233.072 82.8719 210.155 85.0292 187.238C69.6353 169.481 54.4999 151.509 39.6225 133.323C36.9321 133.632 34.3907 134.597 31.9969 136.218C23.3954 137.337 17.734 133.597 15.0128 125.001C14.6876 112.314 20.5801 106.646 32.6902 107.994C38.2367 109.57 41.472 113.308 42.3954 119.211C64.2163 115.294 85.9373 110.831 107.559 105.823C119.316 85.4989 130.986 65.115 142.567 44.6712C143.109 43.6265 142.993 42.6616 142.221 41.7765C133.938 33.7322 133.938 25.651 142.221 17.5329C143.902 16.6554 145.52 15.811 147.073 15Z" fill="#D4A913"/>
</svg>
