<svg width="250" height="714" viewBox="0 0 250 714" fill="none" xmlns="http://www.w3.org/2000/svg">
<path d="M149.432 523.053L145.827 672.468C145.337 692.797 130.346 709.851 110.248 712.945L109.306 713.09C105.393 713.693 101.408 713.649 97.5088 712.962C79.9884 709.872 67.3091 694.51 67.5961 676.722L68.6475 611.571V530.482L67.0979 468.598V454.652C67.0979 449.91 65.2544 445.354 61.9569 441.946C58.944 438.832 54.9226 436.89 50.6105 436.467L47.0822 436.121C43.0643 435.727 39.1796 434.466 35.696 432.425L31.377 429.895C26.8793 427.261 22.8145 423.949 19.3257 420.076L17.6002 418.16C11.4324 411.314 6.73499 403.275 3.79851 394.54L3.63814 394.063C1.22873 386.896 -1.52588e-05 379.385 -1.52588e-05 371.824V357.1V312.821V284.895C-1.52588e-05 274.874 5.66582 265.715 14.6321 261.241L16.2785 260.42C21.5937 257.768 27.7538 257.37 33.3655 259.318C41.9715 262.306 47.8568 270.275 48.1806 279.379L49.107 305.425C49.1557 306.793 49.3862 308.149 49.7924 309.457L52.6209 318.561C55.5763 328.074 68.4802 329.43 73.3483 320.739C74.2969 319.046 74.7951 317.137 74.7951 315.196V279.746V240.801V150.643V65.2857L76.093 29.4679C76.544 17.0227 84.7352 6.1904 96.5868 2.36619C106.847 -0.944405 118.095 1.58412 125.951 8.96698L128.1 10.9858C132.122 14.7663 135.182 19.4544 137.023 24.6586L141.271 36.6652C143.733 43.625 145.3 50.8698 145.934 58.2251L148.566 88.7589L150.102 129.304L152.664 170.915V229.598V286.147L159.836 390.71L160.752 395.163C162.728 404.764 175.232 407.343 180.845 399.306C181.852 397.863 182.504 396.203 182.748 394.461L189.549 345.897L193.733 307.487L195.492 278.035C196.005 269.456 200.834 261.723 208.318 257.497C216.606 252.817 226.819 253.181 234.753 258.439L236.839 259.821C245.058 265.267 250 274.471 250 284.331V307.487L244.877 372.571L240.266 413.116L237.702 435.371C236.36 447.012 232.046 458.113 225.173 467.604L224.445 468.608C216.417 479.694 205.07 487.938 192.046 492.147L186.645 493.893C183.817 494.807 180.863 495.272 177.891 495.272C162.437 495.272 149.805 507.603 149.432 523.053Z" fill="#747A56"/>
</svg>
