<svg width="334" height="253" viewBox="0 0 334 253" fill="none" xmlns="http://www.w3.org/2000/svg">
<path d="M287.321 252.983C288.772 252.983 290.221 252.879 291.656 252.671C300.195 251.436 307.801 246.616 312.565 239.423L322.352 224.643C333.559 207.72 336.851 186.76 331.372 167.217L318.781 122.308C314.542 107.19 306.651 93.3462 295.802 81.9962C277.738 63.0969 252.731 52.4063 226.587 52.4063H208.776C200.561 52.4063 192.411 53.8596 184.703 56.6989L169.996 62.116C164.876 64.0018 160.538 67.5526 157.678 72.1989C151.186 82.7474 153.649 96.4896 163.401 104.126L176.007 113.998C187.353 122.883 189.609 139.164 181.105 150.798C178.994 153.686 176.326 156.12 173.257 157.957L170.798 159.429C156.075 168.241 137.413 166.912 124.088 156.101L117.946 151.117L110.17 144.19C97.0526 132.504 79.6875 126.761 62.1894 128.323L61.2911 128.403C50.0845 129.403 39.3792 133.51 30.3795 140.262C25.9613 143.577 22.0181 147.481 18.6601 151.867L18.1719 152.504C12.2789 160.2 8.14515 169.094 6.06191 178.561L1.46236 199.461C0.490319 203.879 0 208.388 0 212.911V226.348C0 232.769 2.31994 238.975 6.53265 243.821C11.5913 249.641 18.9239 252.983 26.635 252.983H287.321Z" fill="#747A56"/>
<path d="M204.798 58.7151L212.102 60.387C213.266 60.6532 214.478 60.6129 215.621 60.2699C221.15 58.6106 226.146 64.0774 223.997 69.4352L223.613 70.3933C223.418 70.8796 223.172 71.3438 222.879 71.778L220.105 75.8854C217.085 80.3573 217.522 86.316 221.163 90.2991L221.519 90.6886C223.364 92.708 225.932 93.9183 228.664 94.0569C231.438 94.1976 234.153 93.2223 236.203 91.3486L238.492 89.2561C240.75 87.1929 242.438 84.5835 243.395 81.6789L245.681 74.7428C245.791 74.407 245.874 74.0626 245.928 73.7132L246.785 68.191C247.269 65.0673 251.154 63.8939 253.287 66.2273C253.683 66.6613 253.973 67.1822 254.132 67.7482L254.555 69.2514C255.87 73.9267 260.261 77.0571 265.11 76.7759L265.731 76.7399C268.032 76.6065 270.234 75.7614 272.034 74.3215L275.217 71.7743C278.016 69.534 279.536 66.0604 279.28 62.484C278.88 56.8883 274.299 52.5094 268.691 52.3619L266.32 52.2995C264.486 52.2513 262.751 51.459 261.513 50.105L260.738 49.2565C258.65 46.9725 258.81 43.4288 261.094 41.3414C261.894 40.6098 262.89 40.1263 263.959 39.9494L271.612 38.684C274.859 38.1471 277.907 36.7638 280.449 34.6737L285.394 30.607C287.901 28.5463 289.012 25.2365 288.257 22.0811C287.577 19.2398 285.482 16.9484 282.714 16.0163L281.215 15.5116C277.804 14.3636 274.052 14.9022 271.102 16.9631L265.259 21.0455C264.942 21.2673 264.601 21.454 264.244 21.6026L262.747 22.2246C258.611 23.9429 254.593 19.546 256.675 15.5813C257.325 14.3432 257.401 12.8826 256.883 11.5836L255.035 6.94972C254.286 5.07415 253.015 3.4529 251.372 2.27873C247.324 -0.614999 241.803 -0.283525 238.129 3.07385L237.326 3.80783C236.701 4.379 236.139 5.0153 235.65 5.7059L233.807 8.30362C230.871 12.4436 229.709 17.584 230.578 22.5844L231.057 25.339C231.366 27.1204 232.179 28.776 233.399 30.1107L236.526 33.5325C238.33 35.5067 238.193 38.5698 236.218 40.3741C234.244 42.1785 231.181 42.0408 229.377 40.0666L222.042 32.0416C218.651 28.3315 213.831 26.2556 208.805 26.3413C204.533 26.4142 200.434 28.0455 197.279 30.9285L194.962 33.0462C192.692 35.1208 191.216 37.9212 190.787 40.9662C190.236 44.8752 191.459 48.8261 194.122 51.74L195.595 53.3521C198.046 56.0338 201.256 57.9046 204.798 58.7151Z" fill="#D4A913"/>
<path d="M24.0537 109.31L27.1457 114.57C27.6989 115.511 28.49 116.29 29.4394 116.828C33.6414 119.211 33.6414 125.265 29.4394 127.648L28.6922 128.071C28.2258 128.336 27.7294 128.543 27.2136 128.69L25.0918 129.291C20.3042 130.649 17 135.02 17 139.996V140.925C17 142.942 17.7113 144.895 19.0088 146.44C20.6382 148.381 23.0423 149.501 25.5761 149.501H27.145C29.4882 149.501 31.7797 148.812 33.734 147.519L38.6401 144.273C38.8664 144.124 39.0794 143.955 39.2766 143.768L42.0204 141.175C43.987 139.317 47.2228 140.711 47.2228 143.417C47.2228 143.834 47.1383 144.246 46.9745 144.629L46.1894 146.466C44.6073 150.166 45.4853 154.46 48.3931 157.242C50.0052 158.785 52.1017 159.721 54.3263 159.893L55.3198 159.97C58.8052 160.24 62.1659 158.612 64.1154 155.71C66.5733 152.052 66.2546 147.196 63.3396 143.89L61.5989 141.916C60.5972 140.78 60.0446 139.318 60.0446 137.804V135.69C60.0446 133.423 61.8822 131.585 64.149 131.585C65.0509 131.585 65.9277 131.882 66.6438 132.431L71.582 136.211C73.6132 137.765 76.0616 138.68 78.6147 138.837L82.2613 139.062C85.3252 139.251 88.1943 137.551 89.5007 134.773C90.4503 132.754 90.4503 130.417 89.5007 128.397L88.9372 127.199C87.4785 124.097 84.5732 121.924 81.1859 121.4L77.1253 120.772C76.7298 120.711 76.3434 120.601 75.9751 120.444L74.7392 119.919C71.2891 118.451 71.2891 113.561 74.7392 112.094C75.8762 111.611 76.7465 110.656 77.1238 109.48L78.5543 105.019C79.029 103.538 79.1325 101.964 78.8558 100.434L78.721 99.689C77.9826 95.6067 74.4286 92.6379 70.2801 92.6379C69.5648 92.6379 68.8524 92.7274 68.1593 92.9042L67.1055 93.1731C62.6036 94.3218 58.7849 97.2961 56.5689 101.38L55.6025 103.161C54.9115 104.434 54.5495 105.86 54.5495 107.309V112.343C54.5495 114.366 52.9094 116.006 50.8861 116.006C48.8629 116.006 47.2228 114.366 47.2228 112.343V100.757C47.2228 97.0469 45.7862 93.4814 43.2144 90.808L42.8799 90.4602C40.3883 87.8701 36.9492 86.4063 33.3551 86.4063H32.3707C29.5616 86.4063 26.8632 87.5017 24.8489 89.4596C22.7586 91.4915 21.5792 94.2827 21.5792 97.1978V100.218C21.5792 103.415 22.4335 106.554 24.0537 109.31Z" fill="#D4A913"/>
</svg>
