<svg width="250" height="409" viewBox="0 0 250 409" fill="none" xmlns="http://www.w3.org/2000/svg">
<path d="M51.8549 327.599L64.452 330.316C66.56 330.771 68.7104 331 70.8668 331C87.1149 331 100.495 343.769 101.254 359.999L103.5 408C103.5 408.552 103.948 409 104.5 409H180.631C181.029 409 181.352 408.677 181.352 408.279V354.503L182.902 313.196V306.762C182.902 301.872 185.306 297.294 189.331 294.517C191.542 292.991 194.126 292.093 196.806 291.918L203.154 291.502C207.039 291.247 210.862 290.396 214.488 288.978L218.604 287.369C223.121 285.603 227.384 283.245 231.281 280.357L234.382 278.06C239.226 274.47 243.163 269.796 245.875 264.411C248.587 259.025 250 253.079 250 247.05V198.296C250 187.167 242.877 177.287 232.319 173.77L231.527 173.507C227.527 172.174 223.236 171.973 219.129 172.925C209.196 175.226 201.983 183.821 201.441 194.003L200.976 202.729C200.873 204.661 200.4 206.556 199.583 208.311L197.194 213.445C193.632 221.096 183.329 222.457 177.904 215.992C176.16 213.915 175.205 211.29 175.205 208.578V43.9867L174.472 30.4846C173.695 16.1703 163.434 4.14662 149.42 1.12823C141.317 -0.616974 132.853 0.871243 125.832 5.27574L124.118 6.35098C118.655 9.77793 114.189 14.5815 111.169 20.2796L109.366 23.6801C106.493 29.1021 104.618 34.9969 103.832 41.0828L101.434 59.6549L99.8975 86.7183L97.3361 114.494V191.411L90.2865 260.013C90.205 260.806 90.0456 261.589 89.8107 262.351L89.6229 262.96C87.0472 271.315 76.579 274.039 70.2585 267.998C68.5418 266.357 67.362 264.235 66.8744 261.911L60.4508 231.293L56.2667 205.654L55.1565 193.247C54.2572 183.198 47.6853 174.549 38.2436 170.991C31.7917 168.559 24.6427 168.759 18.3371 171.548L17.3018 172.006C6.78382 176.659 0 187.077 0 198.578V205.654L5.12295 249.098L9.73361 276.162L11.3189 285.344C13.2807 296.708 18.9411 307.106 27.4204 314.922C34.2881 321.252 42.7247 325.629 51.8549 327.599Z" fill="#747A56"/>
<path d="M196.898 169.101L198.502 172.755C198.828 173.5 199.34 174.149 199.988 174.641C202.507 176.555 202.507 180.343 199.988 182.256L199.593 182.556C199.2 182.855 198.766 183.096 198.304 183.271L197.962 183.401C194.975 184.536 193 187.398 193 190.594V192.792C193 193.844 193.296 194.874 193.855 195.765L193.924 195.877C194.905 197.441 196.621 198.39 198.466 198.39C199.777 198.39 201.041 197.91 202.022 197.041L204.837 194.546C204.946 194.45 205.045 194.345 205.135 194.231L206.15 192.946C207.253 191.549 209.5 192.329 209.5 194.11C209.5 194.303 209.47 194.496 209.411 194.68L208.594 197.24C207.91 199.386 208.329 201.731 209.714 203.507L210.203 204.135C211.032 205.197 212.257 205.875 213.597 206.014C215.645 206.226 217.611 205.149 218.534 203.309L219.179 202.021C220.306 199.774 220.149 197.097 218.767 194.998L217.294 192.76C216.776 191.973 216.5 191.051 216.5 190.108V187.396C216.5 186.231 217.445 185.286 218.61 185.286C219.179 185.286 219.724 185.515 220.121 185.923L222.924 188.797C223.94 189.839 225.299 190.48 226.75 190.599L227.262 190.642C229.699 190.843 231.965 189.373 232.775 187.066C233.18 185.914 233.18 184.658 232.775 183.506L232.454 182.59C231.552 180.02 229.369 178.111 226.702 177.558L226.059 177.425C225.689 177.348 225.333 177.214 225.004 177.027L224.312 176.632C222.187 175.422 222.187 172.36 224.312 171.149C225.07 170.717 225.615 169.991 225.818 169.142L226.694 165.484C226.896 164.639 226.94 163.763 226.824 162.901L226.506 160.545C226.216 158.399 224.384 156.798 222.219 156.798C221.743 156.798 221.27 156.877 220.82 157.031L220.166 157.254C217.837 158.05 215.969 159.817 215.046 162.098L213.988 164.709C213.666 165.505 213.5 166.356 213.5 167.215V171.891C213.5 172.995 212.605 173.891 211.5 173.891C210.395 173.891 209.5 172.995 209.5 171.891V161.481C209.5 159.548 208.893 157.662 207.765 156.091L206.785 154.726C205.664 153.165 203.861 152.24 201.94 152.24C200.086 152.24 198.338 153.102 197.209 154.572L196.928 154.939C196.002 156.144 195.5 157.622 195.5 159.142V162.434C195.5 164.729 195.976 166.999 196.898 169.101Z" fill="#D4A913"/>
<path d="M152.898 55.1502L154.502 58.8039C154.828 59.5488 155.34 60.1981 155.988 60.6902C158.507 62.6038 158.507 66.392 155.988 68.3055L155.593 68.6055C155.2 68.9042 154.766 69.1449 154.304 69.3202L153.962 69.4502C150.975 70.5848 149 73.4475 149 76.6428V78.8416C149 79.8932 149.296 80.9236 149.855 81.8146L149.924 81.9258C150.905 83.4897 152.621 84.4393 154.466 84.4393C155.777 84.4393 157.041 83.9594 158.022 83.0904L160.837 80.595C160.946 80.4992 161.045 80.3939 161.135 80.2805L162.15 78.9952C163.253 77.5981 165.5 78.3784 165.5 80.1587C165.5 80.3524 165.47 80.5449 165.411 80.7294L164.594 83.289C163.91 85.4349 164.329 87.7805 165.714 89.5565L166.203 90.1836C167.032 91.2458 168.257 91.9245 169.597 92.0633C171.645 92.2755 173.611 91.1982 174.534 89.3577L175.179 88.0698C176.306 85.8231 176.149 83.1461 174.767 81.0467L173.294 78.8089C172.776 78.0217 172.5 77.1 172.5 76.1575V73.4452C172.5 72.2797 173.445 71.3349 174.61 71.3349C175.179 71.3349 175.724 71.5646 176.121 71.9719L178.924 74.846C179.94 75.8886 181.299 76.5287 182.75 76.6485L183.262 76.6908C185.699 76.892 187.965 75.4224 188.775 73.1149C189.18 71.9627 189.18 70.7071 188.775 69.5549L188.454 68.6393C187.552 66.0694 185.369 64.16 182.702 63.6074L182.059 63.4741C181.689 63.3974 181.333 63.263 181.004 63.0759L180.312 62.6813C178.187 61.471 178.187 58.4087 180.312 57.1983C181.07 56.7664 181.615 56.0398 181.818 55.1912L182.694 51.5332C182.896 50.6877 182.94 49.812 182.824 48.9505L182.506 46.5942C182.216 44.4483 180.384 42.8472 178.219 42.8472C177.743 42.8472 177.27 42.9258 176.82 43.0798L176.166 43.3034C173.837 44.0993 171.969 45.8665 171.046 48.1469L169.988 50.7577C169.666 51.5539 169.5 52.4049 169.5 53.2639V57.9398C169.5 59.0444 168.605 59.9398 167.5 59.9398C166.395 59.9398 165.5 59.0444 165.5 57.9398V47.5306C165.5 45.5967 164.893 43.7115 163.765 42.1406L162.785 40.7748C161.664 39.2144 159.861 38.2892 157.94 38.2892C156.086 38.2892 154.338 39.1509 153.209 40.621L152.928 40.9878C152.002 42.1936 151.5 43.6713 151.5 45.1916V48.483C151.5 50.7782 151.976 53.0484 152.898 55.1502Z" fill="#D4A913"/>
<path d="M31.8984 219.237L33.5016 222.891C33.8284 223.636 34.34 224.285 34.9878 224.777C37.5067 226.691 37.5067 230.479 34.9878 232.393L34.5928 232.693C34.1996 232.991 33.7656 233.232 33.304 233.407L32.962 233.537C29.9749 234.672 28 237.535 28 240.73V242.929C28 243.98 28.2962 245.011 28.8548 245.902L28.9245 246.013C29.9048 247.577 31.6207 248.526 33.4664 248.526C34.7766 248.526 36.0414 248.046 37.0219 247.177L39.8375 244.682C39.9456 244.586 40.045 244.481 40.1346 244.368L41.1498 243.082C42.2532 241.685 44.5 242.465 44.5 244.246C44.5 244.439 44.47 244.632 44.4112 244.816L43.5943 247.376C42.9096 249.522 43.3286 251.867 44.714 253.644L45.2032 254.271C46.0317 255.333 47.2573 256.012 48.5972 256.15C50.6451 256.362 52.6106 255.285 53.5335 253.445L54.1794 252.157C55.306 249.91 55.1489 247.233 53.7671 245.134L52.2943 242.896C51.7761 242.109 51.5 241.187 51.5 240.245V237.532C51.5 236.367 52.4448 235.422 53.6103 235.422C54.1792 235.422 54.724 235.652 55.1212 236.059L57.9236 238.933C58.9402 239.976 60.2992 240.616 61.7503 240.736L62.2622 240.778C64.6994 240.979 66.9652 239.509 67.7752 237.202C68.1796 236.05 68.1796 234.794 67.7752 233.642L67.4538 232.726C66.5516 230.156 64.3691 228.247 61.7021 227.694L61.0587 227.561C60.6885 227.484 60.3327 227.35 60.0042 227.163L59.3117 226.768C57.1874 225.558 57.1874 222.496 59.3117 221.285C60.0698 220.853 60.6152 220.127 60.8183 219.278L61.6938 215.62C61.8962 214.775 61.9403 213.899 61.824 213.037L61.5059 210.681C61.2162 208.535 59.3844 206.934 57.219 206.934C56.7429 206.934 56.2701 207.013 55.8197 207.167L55.1656 207.39C52.8374 208.186 50.9694 209.954 50.0457 212.234L48.9883 214.845C48.6658 215.641 48.5 216.492 48.5 217.351V222.027C48.5 223.131 47.6046 224.027 46.5 224.027C45.3954 224.027 44.5 223.131 44.5 222.027V211.618C44.5 209.684 43.8933 207.799 42.7654 206.228L41.7847 204.862C40.6643 203.301 38.861 202.376 36.94 202.376C35.0865 202.376 33.3383 203.238 32.2095 204.708L31.9278 205.075C31.0019 206.281 30.5 207.758 30.5 209.279V212.57C30.5 214.865 30.9762 217.135 31.8984 219.237Z" fill="#D4A913"/>
</svg>
