<svg width="265" height="602" viewBox="0 0 265 602" fill="none" xmlns="http://www.w3.org/2000/svg">
<path d="M151.664 446.609L148.367 559.911C147.752 581.04 131.851 598.579 110.883 601.256L110.022 601.366C106.723 601.787 103.383 601.756 100.093 601.275C81.8502 598.607 68.4405 582.785 68.7992 564.352L69.7459 515.714V447.405L68.1714 395.274V384.994C68.1714 380.109 66.0365 375.468 62.3271 372.29C59.6487 369.995 56.3136 368.605 52.7981 368.319L47.7107 367.905C43.6982 367.578 39.7813 366.508 36.16 364.75L32.2997 362.875C27.4483 360.519 22.9675 357.466 18.9992 353.814L17.1649 352.125C11.3817 346.802 6.85028 340.264 3.89687 332.98C1.3232 326.632 0 319.848 0 312.998V244.501C0 233.755 6.47569 224.068 16.4055 219.96L17.6216 219.457C22.3882 217.485 27.6828 217.188 32.6401 218.614C42.0577 221.325 48.6889 229.751 49.1088 239.542L49.8611 257.079C49.9314 258.719 50.2605 260.336 50.8361 261.873L53.5296 269.061C56.8362 277.885 68.7282 279.293 74.0038 271.484C75.2995 269.566 75.9918 267.305 75.9918 264.99V55.5238L77.0785 30.6588C77.6709 17.1051 86.9873 5.50219 100.093 1.99589C109.5 -0.520889 119.543 1.51754 127.225 7.50284L129.076 8.94533C133.859 12.6726 137.617 17.5541 139.997 23.1318L143.267 30.7938C145.94 37.0585 147.657 43.689 148.361 50.4636L150.943 75.2976L152.504 109.452L155.107 144.506V241.577L162.309 328.641C162.365 329.32 162.476 329.993 162.64 330.654L163.173 332.8C165.45 341.975 177.17 344.7 183.261 337.469C184.593 335.888 185.477 333.978 185.821 331.94L192.582 291.911L196.833 259.554L198.354 238.446C199.034 229.002 204.768 220.665 213.343 216.65C220.903 213.111 229.699 213.395 237.015 217.414L238.601 218.286C248.098 223.504 254 233.481 254 244.318V259.554L248.795 314.381L244.111 348.536L241.906 364.399C240.288 376.04 235.308 386.956 227.577 395.808C219.693 404.835 209.302 411.311 197.726 414.413L189.076 416.731C186.566 417.403 183.979 417.744 181.381 417.744C165.299 417.744 152.132 430.533 151.664 446.609Z" fill="#747A56"/>
<path d="M169.199 261.118L173.67 268.723C174.47 270.084 175.614 271.21 176.987 271.988C183.063 275.433 183.063 284.188 176.987 287.633L175.906 288.245C175.232 288.628 174.514 288.928 173.768 289.139L170.7 290.009C163.778 291.972 159 298.292 159 305.488V306.831C159 309.748 160.028 312.572 161.905 314.806C164.261 317.611 167.737 319.232 171.401 319.232H173.669C177.057 319.232 180.371 318.235 183.196 316.365L190.29 311.673C190.618 311.456 190.926 311.212 191.211 310.942L195.178 307.193C198.022 304.506 202.701 306.522 202.701 310.434C202.701 311.037 202.578 311.633 202.341 312.187L201.206 314.842C198.919 320.193 200.188 326.401 204.393 330.424C206.724 332.655 209.755 334.01 212.972 334.258L214.408 334.369C219.448 334.759 224.307 332.406 227.126 328.21C230.68 322.92 230.219 315.899 226.005 311.119L223.488 308.264C222.039 306.622 221.24 304.507 221.24 302.318V299.261C221.24 295.983 223.897 293.326 227.175 293.326C228.479 293.326 229.747 293.756 230.782 294.549L237.923 300.014C240.86 302.262 244.4 303.585 248.092 303.812L253.364 304.137C257.795 304.41 261.943 301.953 263.832 297.936C265.205 295.016 265.205 291.636 263.832 288.717L263.017 286.984C260.908 282.499 256.707 279.356 251.809 278.599L245.938 277.691C245.366 277.603 244.807 277.443 244.275 277.217L242.488 276.457C237.499 274.335 237.499 267.265 242.488 265.143C244.132 264.444 245.39 263.064 245.936 261.363L248.004 254.913C248.691 252.772 248.84 250.496 248.44 248.284L248.245 247.206C247.177 241.303 242.039 237.01 236.04 237.01C235.006 237.01 233.976 237.14 232.974 237.396L231.45 237.784C224.94 239.445 219.419 243.746 216.215 249.651L214.817 252.226C213.818 254.067 213.295 256.129 213.295 258.224V265.503C213.295 268.428 210.923 270.8 207.998 270.8C205.072 270.8 202.701 268.428 202.701 265.503V248.75C202.701 243.386 200.623 238.23 196.905 234.364L196.421 233.862C192.818 230.116 187.845 228 182.649 228H181.225C177.163 228 173.262 229.584 170.349 232.415C167.327 235.353 165.621 239.389 165.621 243.604V247.972C165.621 252.594 166.857 257.133 169.199 261.118Z" fill="#D4A913"/>
<path d="M40.1992 67.1178L44.6702 74.7232C45.47 76.0837 46.6139 77.2098 47.9868 77.9883C54.0626 81.4334 54.0626 90.1877 47.9868 93.6328L46.9063 94.2454C46.2319 94.6278 45.5141 94.9279 44.7683 95.1394L41.7003 96.0092C34.7777 97.9718 30 104.292 30 111.488V112.831C30 115.748 31.0285 118.572 32.9045 120.806C35.2607 123.611 38.7369 125.232 42.4006 125.232H44.6691C48.0573 125.232 51.3706 124.235 54.1964 122.366L61.2904 117.673C61.6176 117.456 61.9256 117.212 62.2108 116.942L66.1782 113.193C69.0218 110.506 73.7005 112.522 73.7005 116.434C73.7005 117.037 73.5784 117.633 73.3415 118.187L72.2062 120.842C69.9186 126.193 71.1882 132.401 75.3927 136.424C77.7238 138.655 80.7552 140.01 83.9719 140.258L85.4084 140.369C90.4481 140.759 95.3074 138.406 98.1263 134.21C101.68 128.92 101.219 121.899 97.0045 117.119L94.4876 114.265C93.0392 112.622 92.2401 110.508 92.2401 108.318V105.261C92.2401 101.983 94.8972 99.3263 98.1749 99.3263C99.479 99.3263 100.747 99.7558 101.782 100.549L108.923 106.014C111.86 108.262 115.4 109.585 119.092 109.812L124.364 110.137C128.795 110.41 132.943 107.953 134.832 103.936C136.205 101.016 136.205 97.6364 134.832 94.7167L134.017 92.9842C131.908 88.4993 127.707 85.3565 122.809 84.599L116.938 83.6911C116.366 83.6026 115.807 83.4433 115.275 83.2169L113.488 82.4569C108.499 80.3354 108.499 73.2646 113.488 71.1431C115.132 70.444 116.39 69.0643 116.936 67.3632L119.004 60.9126C119.691 58.7721 119.84 56.4958 119.44 54.2839L119.245 53.206C118.177 47.3033 113.039 43.0105 107.04 43.0105C106.006 43.0105 104.976 43.1399 103.974 43.3956L102.45 43.7844C95.9404 45.4453 90.4187 49.746 87.2145 55.6506L85.8171 58.2257C84.8179 60.0671 84.2946 62.1289 84.2946 64.2239V71.503C84.2946 74.4284 81.923 76.8 78.9975 76.8C76.0721 76.8 73.7005 74.4284 73.7005 71.503V54.7496C73.7005 49.3857 71.6233 44.2302 67.9047 40.3645L67.421 39.8617C63.8181 36.1165 58.8454 34 53.6486 34H52.2252C48.1634 34 44.2617 35.5838 41.3491 38.4149C38.3266 41.3529 36.6213 45.3887 36.6213 49.6039V53.9716C36.6213 58.5942 37.8565 63.1328 40.1992 67.1178Z" fill="#D4A913"/>
</svg>
