<svg width="428" height="264" viewBox="0 0 428 264" fill="none" xmlns="http://www.w3.org/2000/svg">
<path d="M56.6667 264H89.6124H241.822H254.341H269.933C282.117 264 293.777 259.045 302.233 250.273C304.125 248.31 305.835 246.179 307.34 243.906L310.889 238.547C329.375 210.632 334.805 176.057 325.767 143.819L318.781 118.902C314.542 103.784 306.651 89.9398 295.802 78.5898C277.738 59.6906 252.731 49 226.587 49H208.776C200.561 49 192.411 50.4532 184.703 53.2925L169.996 58.7097C164.876 60.5954 160.538 64.1463 157.678 68.7926C151.186 79.3411 153.649 93.0833 163.401 100.72L176.007 110.592C187.353 119.476 189.609 135.758 181.105 147.392C178.994 150.28 176.326 152.714 173.257 154.551L170.798 156.022C156.075 164.835 137.413 163.505 124.088 152.694L117.946 147.711L110.17 140.784C97.0526 129.098 79.6875 123.355 62.1894 124.916L61.2911 124.997C50.0845 125.996 39.3792 130.103 30.3795 136.856C25.9613 140.17 22.0181 144.075 18.6601 148.46L18.1719 149.098C12.2789 156.794 8.14515 165.688 6.06191 175.154L1.46236 196.055C0.490319 200.472 0 204.982 0 209.504V217.216C0 227.33 3.65391 237.103 10.2889 244.736C13.0775 247.944 16.3375 250.71 19.9573 252.939L22.3949 254.439C30.2056 259.248 39.005 262.223 48.1312 263.141L56.6667 264Z" fill="#747A56"/>
<ellipse cx="159.57" cy="153.79" rx="20.4036" ry="20.5186" fill="#682D0F"/>
<path fill-rule="evenodd" clip-rule="evenodd" d="M94.9955 75.097L84.4574 83.8906L75.713 95.6156L66.9686 111.399L61.8117 125.379L58 142.515V158.975L60.0179 175.661L65.3991 190.768L72.1256 204.973L81.5426 217.149L93.2018 230.001L105.534 238.344L119.883 245.785L135.354 250.745L149.928 253H165.175L181.543 250.745L197.686 245.785L211.587 238.344L222.126 230.001L236.251 217.149L243.65 204.973L251.722 190.768L254.861 177.915L258 161.005V146.348L255.982 132.143L251.722 117.938L245.892 104.184L236.251 90.4295L226.386 80.0575L212.709 68.5581L201.498 62.0192L186.027 56.6077L170.108 53H154.188H138.942L124.368 58.637L108.673 65.4014L94.9955 75.097ZM73.9193 130.79L103.291 85.469L154.188 65.4014L206.43 80.0575L240.511 121.997L243.65 175.661L214.726 220.756L165.175 240.599L112.709 227.972L77.7309 185.807L73.9193 130.79Z" fill="#682D0F"/>
<rect width="71.7496" height="5.85648" transform="matrix(0.999154 -0.0411177 0.0406588 0.999173 72.3501 155.612)" fill="#682D0F"/>
<rect width="71.9163" height="5.84299" transform="matrix(0.764174 -0.64501 0.640769 0.767733 88.9424 208.068)" fill="#682D0F"/>
<rect width="72.1329" height="5.82538" transform="matrix(0.223721 -0.974653 0.974099 0.226122 135.13 241.004)" fill="#682D0F"/>
<rect width="72.0981" height="5.82821" transform="matrix(0.368064 0.929801 -0.928372 0.371653 166.646 164.773)" fill="#682D0F"/>
<rect width="71.7497" height="5.85647" transform="matrix(0.99893 -0.0462473 0.0457314 0.998954 176.854 148.36)" fill="#682D0F"/>
<rect width="71.8701" height="5.84673" transform="matrix(0.835712 0.549168 -0.544859 0.838528 175.535 159.876)" fill="#682D0F"/>
<rect width="71.9173" height="5.84292" transform="matrix(0.762645 -0.646818 0.642582 0.766217 169.581 141.753)" fill="#682D0F"/>
<rect width="72.1254" height="5.82599" transform="matrix(0.261788 -0.965126 0.964374 0.264541 159.794 139.296)" fill="#682D0F"/>
<rect width="71.8784" height="5.84606" transform="matrix(0.823352 0.567531 -0.563206 0.826316 85.5151 101.023)" fill="#682D0F"/>
<rect width="72.103" height="5.82782" transform="matrix(0.351466 0.936201 -0.934889 0.354941 131.099 71.6704)" fill="#682D0F"/>
<ellipse cx="301.517" cy="127.499" rx="26.2186" ry="25.956" fill="#682D0F"/>
<path fill-rule="evenodd" clip-rule="evenodd" d="M218.539 27.9526L204.998 39.0767L193.761 53.9087L182.525 73.8749L175.898 91.5592L171 113.237V134.059L173.593 155.166L180.508 174.276L189.151 192.246L201.252 207.648L216.234 223.906L232.081 234.46L250.52 243.873L270.4 250.148L289.128 253H308.72L329.752 250.148L350.497 243.873L368.36 234.46L381.901 223.906L400.053 207.648L409.561 192.246L419.933 174.276L423.966 158.018L428 136.626V118.086L425.407 100.116L419.933 82.1466L412.442 64.7475L400.053 47.3484L387.376 34.2277L369.8 19.6809L355.395 11.4092L335.515 4.5637L315.058 0H294.602H275.01L256.283 7.13078L236.114 15.6877L218.539 27.9526ZM191.456 98.4047L229.2 41.0733L294.602 15.6877L361.733 34.2277L405.527 87.2807L409.561 155.166L372.394 212.212L308.72 237.312L241.3 221.339L196.354 168.001L191.456 98.4047Z" fill="#682D0F"/>
<rect width="92.1958" height="7.40865" transform="matrix(0.99918 -0.0404788 0.0413005 0.999147 189.44 129.804)" fill="#682D0F"/>
<rect width="91.8168" height="7.43959" transform="matrix(0.769132 -0.63909 0.646683 0.762759 210.761 196.161)" fill="#682D0F"/>
<rect width="91.3209" height="7.47969" transform="matrix(0.227077 -0.973877 0.974869 0.222778 270.112 237.826)" fill="#682D0F"/>
<rect width="91.4008" height="7.47326" transform="matrix(0.373079 0.9278 -0.930358 0.366652 310.609 141.394)" fill="#682D0F"/>
<rect width="92.1954" height="7.40868" transform="matrix(0.998963 -0.045529 0.0464529 0.998921 323.728 120.63)" fill="#682D0F"/>
<rect width="91.922" height="7.43103" transform="matrix(0.839631 0.543157 -0.550873 0.834589 322.032 135.199)" fill="#682D0F"/>
<rect width="91.8147" height="7.43976" transform="matrix(0.76762 -0.640905 0.648489 0.761224 314.382 112.273)" fill="#682D0F"/>
<rect width="91.3382" height="7.4783" transform="matrix(0.265637 -0.964073 0.965418 0.260706 301.805 109.164)" fill="#682D0F"/>
<rect width="91.9032" height="7.43256" transform="matrix(0.827478 0.561498 -0.569241 0.822171 206.357 60.749)" fill="#682D0F"/>
<rect width="91.3897" height="7.47416" transform="matrix(0.356322 0.934363 -0.936713 0.350099 264.931 23.6182)" fill="#682D0F"/>
</svg>
