<svg width="162" height="190" viewBox="0 0 162 190" fill="none" xmlns="http://www.w3.org/2000/svg">
<path d="M72.3046 4.41233L79.4236 7.69453C85.8095 10.6387 92.7074 12.3117 99.7326 12.6201C115.139 13.2965 129.528 20.5061 139.293 32.4423L144.968 39.3796C155.899 52.7417 161.83 69.4965 161.741 86.76L161.717 91.2413C161.647 104.826 158.162 118.175 151.585 130.061C146.313 139.586 139.176 147.952 130.6 154.659L126.073 158.199C119.435 163.391 112.218 167.796 104.568 171.329L72.6682 186.059C64.4246 189.866 55.0065 190.242 46.4857 187.104C31.0961 181.438 21.8863 165.654 24.5253 149.467L25.9378 140.804C26.7506 135.819 26.7159 130.732 25.8351 125.758L25.2201 122.285C24.2374 116.736 22.5438 111.336 20.1811 106.22L11.5503 87.5285C10.4568 85.1606 9.11289 82.9166 7.54141 80.835C0.161534 71.0596 -1.82618 58.2354 2.24818 46.6846L7.49846 31.8C10.998 21.8787 17.6863 13.3967 26.5178 7.67989C40.2115 -1.18433 57.491 -2.41747 72.3046 4.41233Z" fill="#D2C1A7"/>
</svg>
