<svg width="131" height="144" viewBox="0 0 131 144" fill="none" xmlns="http://www.w3.org/2000/svg">
<path d="M5.61323 48.8578L13.4325 36.1529C17.6973 29.2232 23.5341 23.3953 30.4701 19.1409L46.8301 9.10604C57.0986 2.8076 69.0967 -0.0800802 81.1065 0.856462L85.5156 1.2003C86.9372 1.31115 88.3669 1.25858 89.7765 1.04358C99.1843 -0.391334 108.163 5.48929 110.607 14.6867L115.032 31.3388C116.076 35.2679 116.481 39.3395 116.23 43.3972L114.598 69.7708C114.153 76.9689 116.989 83.9819 122.312 88.8477C129.502 95.4202 131.972 105.705 128.552 114.826L126.069 121.447C120.264 136.929 104.243 146.068 87.9618 143.186L66.2075 139.335C58.7545 138.016 52.7447 132.491 50.8043 125.175C49.6132 120.684 46.8533 116.768 43.0244 114.136L12.7762 93.3464C-0.299338 82.337 -3.34593 63.4149 5.61323 48.8578Z" fill="#E9E1D5"/>
</svg>
