<svg width="186" height="172" viewBox="0 0 186 172" fill="none" xmlns="http://www.w3.org/2000/svg">
<path d="M6.24941 121.717L6.6007 113.886C6.91581 106.861 5.86047 99.8419 3.49354 93.2203C-1.69732 78.6987 -0.45413 62.6531 6.9116 49.1043L11.1926 41.2297C19.4382 26.0624 32.7133 14.2441 48.7328 7.80888L52.8912 6.1384C65.4968 1.07462 79.1731 -0.739142 92.6629 0.863885C103.474 2.14855 113.915 5.5983 123.363 11.0072L128.351 13.8628C135.665 18.0496 142.469 23.0682 148.629 28.8186L174.313 52.7951C180.951 58.9912 184.855 67.5702 185.167 76.6449C185.73 93.035 174.592 107.523 158.608 111.191L150.053 113.154C145.129 114.283 140.432 116.236 136.159 118.93L133.175 120.81C128.408 123.816 124.047 127.423 120.201 131.542L106.153 146.592C104.373 148.498 102.802 150.59 101.468 152.831C95.2028 163.356 84.0784 170.038 71.8442 170.627L56.079 171.385C45.5708 171.891 35.1913 168.9 26.5631 162.881C13.1846 153.548 5.51842 138.013 6.24941 121.717Z" fill="#D2C1A7"/>
</svg>
