<svg width="134" height="143" viewBox="0 0 134 143" fill="none" xmlns="http://www.w3.org/2000/svg">
<path d="M129.399 86.968L122.739 100.317C119.106 107.598 113.81 113.921 107.279 118.775L91.8748 130.223C82.2062 137.408 70.5118 141.35 58.4663 141.483L54.0441 141.532C52.6182 141.548 51.1989 141.727 49.814 142.067C40.5707 144.331 31.1053 139.271 27.8541 130.327L21.9678 114.134C20.579 110.313 19.8147 106.293 19.7044 102.229L18.9877 75.8148C18.7921 68.6056 15.345 61.8721 9.611 57.4981C1.86576 51.59 -1.50819 41.5655 1.08855 32.1766L2.97356 25.361C7.38109 9.42498 22.5273 -1.10096 39.0001 0.324274L61.0105 2.22863C68.5512 2.88106 75.0279 7.85044 77.6102 14.9652C79.1953 19.3325 82.292 22.9878 86.3394 25.269L118.314 43.2912C132.316 53.096 137.03 71.6729 129.399 86.968Z" fill="#E9E1D5"/>
</svg>
