<svg width="182" height="171" viewBox="0 0 182 171" fill="none" xmlns="http://www.w3.org/2000/svg">
<path d="M23.043 42.4983L29.6906 38.3434C35.6535 34.6163 40.834 29.7642 44.9429 24.0576C53.954 11.5427 67.8712 3.46068 83.2069 1.83674L92.1201 0.892887C109.288 -0.925045 126.552 3.29866 140.942 12.837L144.677 15.313C156 22.8186 165.255 33.0502 171.59 45.0671C176.667 54.6976 179.752 65.2524 180.66 76.1014L181.14 81.8292C181.843 90.2267 181.572 98.6774 180.333 107.013L175.166 141.767C173.831 150.748 168.983 158.831 161.688 164.238C148.512 174.003 130.263 173.054 118.172 161.974L111.7 156.044C107.976 152.631 103.703 149.871 99.0598 147.882L95.8183 146.492C90.6382 144.272 85.1937 142.729 79.6192 141.9L59.2554 138.873C56.6756 138.489 54.0621 138.383 51.4596 138.557C39.2383 139.37 27.423 134.003 19.9957 124.264L10.4247 111.713C4.04518 103.348 0.617377 93.1043 0.677126 82.5842C0.76977 66.2721 9.21045 51.1441 23.043 42.4983Z" fill="#D2C1A7"/>
</svg>
