<svg width="146" height="126" viewBox="0 0 146 126" fill="none" xmlns="http://www.w3.org/2000/svg">
<path d="M40.7188 117.691L28.9699 108.497C22.5618 103.483 17.4245 97.03 13.9741 89.661L5.83547 72.2796C0.727238 61.3701 -0.797927 49.124 1.47837 37.2948L2.31407 32.9519C2.58351 31.5517 2.69144 30.1252 2.63573 28.7003C2.26397 19.1909 9.11358 10.9277 18.527 9.52946L35.57 6.99796C39.5914 6.40065 43.6826 6.45508 47.6866 7.15916L73.7114 11.7354C80.8142 12.9844 88.1008 10.9525 93.5324 6.20824C100.869 -0.200111 111.366 -1.50274 120.046 2.91788L126.348 6.12688C141.081 13.6301 148.368 30.5743 143.68 46.43L137.415 67.6159C135.269 74.8741 129.106 80.227 121.619 81.3355C117.023 82.0159 112.822 84.3196 109.778 87.8296L85.7298 115.558C73.3247 127.318 54.1804 128.225 40.7188 117.691Z" fill="#E9E1D5"/>
</svg>
