<svg width="183" height="171" viewBox="0 0 183 171" fill="none" xmlns="http://www.w3.org/2000/svg">
<path d="M22.2593 44.9789L28.7936 40.648C34.655 36.7632 39.7041 31.7745 43.6592 25.9603C52.3331 13.2094 66.0296 4.75876 81.3166 2.7261L90.2014 1.5447C107.315 -0.730775 124.686 3.03065 139.324 12.1815L143.125 14.5569C154.644 21.7577 164.168 31.7386 170.822 43.5822C176.154 53.0738 179.52 63.5425 180.717 74.3633L181.349 80.0763C182.276 88.4521 182.231 96.907 181.215 105.272L176.978 140.152C175.883 149.166 171.252 157.375 164.104 162.975C151.194 173.088 132.925 172.626 120.543 161.873L113.916 156.118C110.102 152.805 105.756 150.161 101.062 148.296L97.7842 146.994C92.5467 144.913 87.0629 143.515 81.4683 142.835L61.031 140.353C58.4418 140.038 55.8264 140.002 53.2295 140.245C41.0343 141.384 29.0799 136.334 21.3953 126.796L11.4927 114.506C4.89228 106.314 1.1923 96.1654 0.971258 85.6474C0.628514 69.3387 8.66243 53.9908 22.2593 44.9789Z" fill="#D2C1A7"/>
</svg>
