<svg width="145" height="129" viewBox="0 0 145 129" fill="none" xmlns="http://www.w3.org/2000/svg">
<path d="M138.347 25.572L142.605 39.8699C144.927 47.6684 145.38 55.9042 143.927 63.9103L140.501 82.7944C138.35 94.6471 132.504 105.515 123.8 113.843L120.604 116.9C119.574 117.886 118.66 118.986 117.88 120.18C112.678 128.149 102.31 130.922 93.8246 126.612L78.4624 118.81C74.8377 116.969 71.5333 114.556 68.6761 111.664L50.1054 92.8659C45.0369 87.7354 37.9193 85.1738 30.7439 85.8977C21.0517 86.8756 11.7389 81.861 7.22012 73.2311L3.93985 66.9665C-3.73001 52.3187 0.137886 34.2842 13.14 24.07L30.5129 10.4221C36.4648 5.74638 44.5893 4.94986 51.336 8.38063C55.4774 10.4866 60.236 11.0398 64.75 9.94022L100.411 1.25329C117.334 -1.15369 133.469 9.18968 138.347 25.572Z" fill="#E9E1D5"/>
</svg>
