<svg width="174" height="154" viewBox="0 0 174 154" fill="none" xmlns="http://www.w3.org/2000/svg">
<path d="M50.3687 145.334L36.507 135.25C28.5853 129.487 22.1539 121.916 17.7475 113.167L7.51851 92.8561C0.935394 79.7848 -1.35214 64.9685 0.982155 50.5205L1.82998 45.2728C2.10689 43.5588 2.18797 41.8189 2.07165 40.0867C1.29835 28.5713 9.21635 18.2804 20.5453 16.0767L40.7383 12.1488C45.6422 11.1949 50.6683 11.0424 55.621 11.6973L86.7094 15.8078C95.3711 16.9531 104.087 14.1287 110.431 8.12098C119.038 -0.0301094 131.742 -2.11624 142.504 2.8543L149.792 6.2207C167.753 14.5164 177.181 34.4965 172.165 53.6343L165.218 80.143C162.904 88.9705 155.735 95.6902 146.776 97.4283C141.26 98.4985 136.303 101.491 132.786 105.872L104.82 140.712C90.3405 155.57 67.1457 157.539 50.3687 145.334Z" fill="#E9E1D5"/>
</svg>
