<svg width="134" height="143" viewBox="0 0 134 143" fill="none" xmlns="http://www.w3.org/2000/svg">
<path d="M129.4 86.968L122.74 100.317C119.107 107.598 113.811 113.921 107.28 118.775L91.8758 130.223C82.2071 137.408 70.5128 141.35 58.4673 141.483L54.0451 141.532C52.6192 141.548 51.1999 141.727 49.815 142.067C40.5717 144.331 31.1063 139.271 27.8551 130.327L21.9688 114.134C20.58 110.313 19.8157 106.293 19.7054 102.229L18.9887 75.8148C18.793 68.6056 15.346 61.8721 9.61198 57.4981C1.86674 51.59 -1.50721 41.5655 1.08953 32.1766L2.97454 25.361C7.38206 9.42498 22.5283 -1.10096 39.0011 0.324274L61.0115 2.22863C68.5522 2.88106 75.0288 7.85044 77.6112 14.9652C79.1963 19.3325 82.293 22.9878 86.3404 25.269L118.315 43.2912C132.317 53.096 137.031 71.6729 129.4 86.968Z" fill="#E9E1D5"/>
</svg>
