<svg width="141" height="140" viewBox="0 0 141 140" fill="none" xmlns="http://www.w3.org/2000/svg">
<path d="M66.4241 1.62317L80.9744 4.91644C88.9106 6.71269 96.3122 10.3525 102.58 15.5413L117.364 27.7799C126.643 35.4615 133.254 45.8824 136.249 57.5503L137.349 61.8339C137.703 63.2151 138.215 64.5509 138.874 65.8154C143.273 74.2546 140.61 84.652 132.696 89.9377L118.368 99.5074C114.987 101.765 111.265 103.464 107.344 104.538L81.8582 111.518C74.9025 113.423 69.1823 118.373 66.2981 124.983C62.4022 133.911 53.4682 139.573 43.7311 139.285L36.6627 139.075C20.1357 138.586 6.30861 126.378 3.77403 110.039L0.387428 88.208C-0.772817 80.7285 2.51309 73.2556 8.80923 69.0548C12.674 66.4762 15.4877 62.5988 16.7406 58.1249L26.6384 22.7806C32.8308 6.8486 49.7527 -2.15021 66.4241 1.62317Z" fill="#E9E1D5"/>
</svg>
