<svg width="131" height="144" viewBox="0 0 131 144" fill="none" xmlns="http://www.w3.org/2000/svg">
<path d="M5.61323 48.8598L13.4325 36.1548C17.6973 29.2252 23.5341 23.3972 30.4701 19.1428L46.8301 9.10799C57.0986 2.80956 69.0967 -0.0781271 81.1065 0.858415L85.5156 1.20225C86.9372 1.31311 88.3669 1.26053 89.7765 1.04553C99.1843 -0.389381 108.163 5.49124 110.607 14.6887L115.032 31.3408C116.076 35.2699 116.481 39.3415 116.23 43.3992L114.598 69.7727C114.153 76.9708 116.989 83.9838 122.312 88.8497C129.502 95.4222 131.972 105.707 128.552 114.828L126.069 121.449C120.264 136.931 104.243 146.07 87.9618 143.188L66.2075 139.337C58.7545 138.017 52.7447 132.493 50.8043 125.177C49.6132 120.686 46.8533 116.77 43.0244 114.138L12.7762 93.3484C-0.299338 82.339 -3.34593 63.4169 5.61323 48.8598Z" fill="#E9E1D5"/>
</svg>
