<svg width="129" height="145" viewBox="0 0 129 145" fill="none" xmlns="http://www.w3.org/2000/svg">
<path d="M123.169 97.8188L114.942 110.408C110.497 117.21 104.518 122.872 97.4851 126.94L80.8408 136.568C70.4489 142.579 58.4209 145.146 46.4804 143.901L42.0867 143.443C40.674 143.296 39.249 143.312 37.8399 143.49C28.4269 144.679 19.6348 138.57 17.4665 129.334L13.5278 112.555C12.6041 108.62 12.3195 104.563 12.6848 100.537L15.0767 74.1813C15.7267 67.0193 13.0993 59.948 7.93046 54.948C0.95509 48.2004 -1.21786 37.89 2.44097 28.9013L5.135 22.2828C11.3674 6.97157 27.6232 -1.7274 43.8197 1.58147L65.2947 5.96872C72.6972 7.481 78.5431 13.1623 80.2662 20.5185C81.3233 25.0311 83.9644 29.0146 87.7096 31.7449L117.256 53.2847C129.976 64.6207 132.49 83.5561 123.169 97.8188Z" fill="#E9E1D5"/>
</svg>
