<svg width="173" height="181" viewBox="0 0 173 181" fill="none" xmlns="http://www.w3.org/2000/svg">
<path d="M135.553 25.3273L139.296 32.2149C142.654 38.3933 147.183 43.859 152.629 48.3069C164.573 58.0617 171.795 72.4442 172.484 87.8503L172.885 96.8044C173.656 114.051 168.392 131.027 157.997 144.81L155.298 148.388C147.119 159.234 136.344 167.85 123.964 173.444C114.043 177.927 103.32 180.364 92.4363 180.612L86.69 180.742C78.2652 180.934 69.8466 180.15 61.6019 178.407L27.2259 171.139C18.3422 169.261 10.5686 163.93 5.6151 156.32C-3.33163 142.576 -1.27513 124.417 10.5188 113.022L16.8312 106.923C20.4638 103.413 23.4778 99.3149 25.746 94.8015L27.3296 91.6504C29.8603 86.6148 31.7317 81.2741 32.8975 75.7602L37.1562 55.6179C37.6958 53.0661 37.9604 50.4639 37.9455 47.8558C37.8757 35.6076 43.9509 24.1402 54.1236 17.3182L67.2323 8.52735C75.9698 2.66786 86.4026 -0.131317 96.8997 0.567431C113.176 1.65087 127.763 10.995 135.553 25.3273Z" fill="#D2C1A7"/>
</svg>
