<svg width="170" height="185" viewBox="0 0 170 185" fill="none" xmlns="http://www.w3.org/2000/svg">
<path d="M115.093 183.075L107.327 182.004C100.361 181.044 93.2745 181.449 86.4632 183.196C71.5254 187.028 55.6623 184.314 42.849 175.732L35.4019 170.745C21.0579 161.138 10.5116 146.831 5.57824 130.288L4.2976 125.993C0.41558 112.975 -0.131662 99.1896 2.70621 85.9046C4.98049 75.2579 9.37664 65.1786 15.6322 56.2683L18.9349 51.5641C23.777 44.6671 29.4006 38.3535 35.6936 32.7489L61.9323 9.38076C68.7131 3.34185 77.615 0.243913 86.6799 0.768465C103.052 1.71588 116.453 14.1405 118.634 30.3946L119.802 39.0942C120.473 44.1007 121.986 48.9578 124.274 53.4607L125.872 56.6046C128.426 61.6285 131.617 66.3025 135.365 70.5112L149.057 85.8855C150.792 87.8332 152.73 89.5895 154.839 91.1243C164.742 98.3318 170.372 110.024 169.832 122.261L169.137 138.029C168.673 148.539 164.739 158.599 157.951 166.636C147.427 179.099 131.252 185.303 115.093 183.075Z" fill="#D2C1A7"/>
</svg>
