<svg width="185" height="176" viewBox="0 0 185 176" fill="none" xmlns="http://www.w3.org/2000/svg">
<path d="M172.442 43.7699L173.133 51.5786C173.753 58.5831 175.731 65.3999 178.956 71.6488C186.028 85.3531 186.925 101.422 181.423 115.828L178.225 124.201C172.065 140.329 160.476 153.804 145.452 162.309L141.552 164.516C129.73 171.208 116.416 174.821 102.833 175.023C91.9468 175.184 81.1401 173.151 71.0576 169.044L65.7345 166.875C57.9302 163.696 50.5199 159.625 43.6512 154.743L15.0122 134.388C7.61112 129.127 2.6029 121.142 1.08923 112.189C-1.64465 96.019 7.4724 80.1812 22.8286 74.4244L31.0476 71.3432C35.7774 69.5701 40.174 67.011 44.0519 63.7741L46.7593 61.5142C51.0858 57.9027 54.9291 53.7488 58.1941 49.1552L70.1212 32.3745C71.6322 30.2486 72.9111 27.9669 73.936 25.5685C78.7492 14.3055 88.8883 6.20553 100.936 3.99847L116.461 1.15441C126.809 -0.741276 137.494 0.845332 146.845 5.66619C161.344 13.1412 171.004 27.5211 172.442 43.7699Z" fill="#D2C1A7"/>
</svg>
