<svg width="130" height="145" viewBox="0 0 130 145" fill="none" xmlns="http://www.w3.org/2000/svg">
<path d="M32.4511 3.47429L47.1948 1.19802C55.2364 -0.0435196 63.4574 0.626059 71.1921 3.15254L89.4358 9.11174C100.887 12.8521 110.86 20.1198 117.929 29.8744L120.524 33.4555C121.36 34.6102 122.327 35.665 123.404 36.5994C130.592 42.8355 131.931 53.4848 126.509 61.3059L116.693 75.4661C114.376 78.8073 111.537 81.7534 108.284 84.1914L87.1382 100.037C81.367 104.362 77.8626 111.066 77.6053 118.273C77.2579 128.008 71.0251 136.554 61.8614 139.859L55.2094 142.258C39.6558 147.868 22.3136 141.586 13.9597 127.318L2.79753 108.252C-1.02661 101.721 -0.71244 93.5632 3.60276 87.3449C6.2516 83.5279 7.44596 78.8885 6.96955 74.2669L3.20595 37.7564C3.11942 20.6634 15.5581 6.0824 32.4511 3.47429Z" fill="#E9E1D5"/>
</svg>
