<svg width="183" height="178" viewBox="0 0 183 178" fill="none" xmlns="http://www.w3.org/2000/svg">
<path d="M19.4599 139.678L17.8506 132.006C16.4071 125.124 13.6377 118.588 9.69689 112.764C1.05445 99.9921 -1.73584 84.1421 2.02522 69.1862L4.21114 60.4938C8.42147 43.7514 18.3366 29.0004 32.2499 18.78L35.8615 16.1269C46.8098 8.0845 59.604 2.9233 73.0682 1.11774C83.8586 -0.329252 94.8298 0.412695 105.327 3.29929L110.869 4.82329C118.995 7.05764 126.834 10.2244 134.232 14.2603L165.076 31.0883C173.047 35.4371 178.964 42.7741 181.525 51.4854C186.151 67.2193 178.97 84.0237 164.401 91.5551L156.604 95.5861C152.117 97.9059 148.054 100.967 144.586 104.639L142.164 107.203C138.295 111.301 134.97 115.88 132.271 120.827L122.41 138.9C121.161 141.19 120.161 143.606 119.427 146.109C115.978 157.862 106.868 167.104 95.1652 170.719L80.0851 175.378C70.0336 178.484 59.2363 178.171 49.3813 174.489C34.1006 168.78 22.8086 155.643 19.4599 139.678Z" fill="#D2C1A7"/>
</svg>
