<svg width="144" height="132" viewBox="0 0 144 132" fill="none" xmlns="http://www.w3.org/2000/svg">
<path d="M93.0613 5.49999L105.943 13.0241C112.969 17.128 118.93 22.8287 123.344 29.6648L133.753 45.7889C140.287 55.9094 143.451 67.8377 142.791 79.8659L142.549 84.2818C142.471 85.7056 142.557 87.1336 142.804 88.5379C144.456 97.9102 138.784 107.022 129.645 109.678L113.1 114.486C109.196 115.62 105.134 116.118 101.072 115.961L74.6678 114.938C67.4614 114.659 60.5157 117.656 55.7739 123.09C49.369 130.429 39.1443 133.136 29.9466 129.928L23.2698 127.598C7.65825 122.152 -1.84836 106.346 0.657597 90.0025L4.00597 68.1652C5.15312 60.6837 10.5379 54.548 17.8071 52.4394C22.2692 51.1451 26.1203 48.2956 28.663 44.407L48.7498 13.6873C59.4546 0.361257 78.3014 -3.121 93.0613 5.49999Z" fill="#E9E1D5"/>
</svg>
