<svg width="146" height="126" viewBox="0 0 146 126" fill="none" xmlns="http://www.w3.org/2000/svg">
<path d="M40.7188 117.689L28.9699 108.495C22.5618 103.481 17.4245 97.0281 13.9741 89.659L5.83547 72.2777C0.727238 61.3682 -0.797927 49.122 1.47837 37.2928L2.31407 32.95C2.58351 31.5497 2.69144 30.1232 2.63573 28.6984C2.26397 19.189 9.11358 10.9257 18.527 9.5275L35.57 6.996C39.5914 6.39869 43.6826 6.45313 47.6866 7.1572L73.7114 11.7335C80.8142 12.9825 88.1008 10.9506 93.5324 6.20628C100.869 -0.202064 111.366 -1.50469 120.046 2.91593L126.348 6.12493C141.081 13.6282 148.368 30.5724 143.68 46.4281L137.415 67.6139C135.269 74.8721 129.106 80.2251 121.619 81.3335C117.023 82.0139 112.822 84.3177 109.778 87.8276L85.7298 115.556C73.3247 127.316 54.1804 128.223 40.7188 117.689Z" fill="#E9E1D5"/>
</svg>
