<svg width="184" height="163" viewBox="0 0 184 163" fill="none" xmlns="http://www.w3.org/2000/svg">
<path d="M16.4157 56.2161L22.2475 50.9774C27.4788 46.2783 31.7453 40.6058 34.809 34.2764C41.5279 20.3955 53.8436 10.0354 68.6699 5.79222L77.287 3.32606C93.8843 -1.42401 111.618 -0.23955 127.437 6.67555L131.543 8.47058C143.99 13.912 154.87 22.3952 163.182 33.1402C169.843 41.7513 174.701 51.6163 177.466 62.1463L178.926 67.7058C181.066 75.8564 182.256 84.2273 182.472 92.6515L183.374 127.776C183.607 136.853 180.224 145.651 173.971 152.234C162.676 164.124 144.535 166.335 130.715 157.505L123.319 152.779C119.062 150.059 114.377 148.078 109.46 146.918L106.028 146.108C100.543 144.815 94.9136 144.233 89.2798 144.377L68.6989 144.906C66.0916 144.973 63.499 145.319 60.9654 145.938C49.0673 148.846 36.5036 145.596 27.5086 137.283L15.9174 126.57C8.19141 119.43 3.04917 109.93 1.29457 99.5573C-1.42601 83.4735 4.28058 67.1169 16.4157 56.2161Z" fill="#D2C1A7"/>
</svg>
