<svg width="146" height="126" viewBox="0 0 146 126" fill="none" xmlns="http://www.w3.org/2000/svg">
<path d="M40.7178 117.691L28.969 108.498C22.5608 103.483 17.4235 97.0305 13.9731 89.6615L5.83449 72.2801C0.726261 61.3706 -0.798903 49.1245 1.47739 37.2953L2.31309 32.9524C2.58254 31.5522 2.69046 30.1257 2.63476 28.7008C2.26299 19.1914 9.1126 10.9282 18.526 9.52994L35.5691 6.99844C39.5904 6.40114 43.6817 6.45557 47.6857 7.15964L73.7104 11.7359C80.8132 12.9849 88.0998 10.953 93.5314 6.20873C100.868 -0.199623 111.365 -1.50225 120.045 2.91837L126.347 6.12737C141.08 13.6306 148.367 30.5748 143.679 46.4305L137.415 67.6163C135.268 74.8746 129.105 80.2275 121.618 81.336C117.022 82.0164 112.821 84.3201 109.777 87.83L85.7288 115.558C73.3237 127.318 54.1794 128.225 40.7178 117.691Z" fill="#E9E1D5"/>
</svg>
