<svg width="185" height="173" viewBox="0 0 185 173" fill="none" xmlns="http://www.w3.org/2000/svg">
<path d="M6.06294 122.418L6.39384 114.586C6.69066 107.56 5.61704 100.544 3.23288 93.9288C-1.99579 79.4207 -0.794377 63.3719 6.53605 49.804L10.7965 41.9182C19.0026 26.7295 32.2468 14.8766 48.2495 8.39977L52.4036 6.71847C64.996 1.62188 78.6676 -0.227483 92.1615 1.34041C102.976 2.59693 113.426 6.01947 122.888 11.4037L127.884 14.2464C135.208 18.414 142.025 23.4149 148.2 29.1493L173.947 53.0588C180.6 59.2376 184.527 67.8065 184.862 76.8803C185.469 93.2689 174.368 107.786 158.393 111.495L149.843 113.48C144.923 114.623 140.231 116.588 135.964 119.293L132.986 121.181C128.226 124.199 123.875 127.817 120.04 131.947L106.031 147.033C104.256 148.944 102.691 151.04 101.362 153.284C95.1244 163.825 84.0175 170.537 71.7849 171.157L56.0217 171.957C45.5149 172.489 35.1276 169.526 26.4837 163.529C13.081 154.231 5.37439 138.716 6.06294 122.418Z" fill="#D2C1A7"/>
</svg>
