<svg width="143" height="132" viewBox="0 0 143 132" fill="none" xmlns="http://www.w3.org/2000/svg">
<path d="M51.3049 126.662L38.3247 119.309C31.245 115.298 25.2091 109.676 20.706 102.899L10.0844 86.9138C3.41769 76.8806 0.0967513 64.9951 0.597114 52.9592L0.780812 48.5405C0.840038 47.1158 0.735634 45.689 0.469651 44.2882C-1.30552 34.9385 4.24558 25.7525 13.3483 22.9763L29.829 17.9501C33.7176 16.7642 37.7719 16.2125 41.836 16.3162L68.2514 16.9901C75.4609 17.174 82.3665 14.086 87.036 8.59C93.3434 1.16632 103.532 -1.67557 112.771 1.41152L119.478 3.65249C135.16 8.89231 144.874 24.5714 142.585 40.9464L139.525 62.826C138.477 70.322 133.173 76.5282 125.933 78.7327C121.488 80.0858 117.675 82.9859 115.184 86.9077L95.5044 117.89C84.9765 131.356 66.1774 135.087 51.3049 126.662Z" fill="#E9E1D5"/>
</svg>
