<svg width="186" height="176" viewBox="0 0 186 176" fill="none" xmlns="http://www.w3.org/2000/svg">
<path d="M173.391 45.0444L173.965 52.8625C174.481 59.8755 176.356 66.7211 179.487 73.0174C186.354 86.8257 187.012 102.906 181.295 117.229L177.972 125.553C171.573 141.587 159.784 154.888 144.635 163.167L140.702 165.316C128.782 171.831 115.415 175.245 101.83 175.244C90.943 175.243 80.1679 173.048 70.1478 168.791L64.8577 166.544C57.1017 163.248 49.7529 159.067 42.9578 154.083L14.6258 133.302C7.30413 127.932 2.41564 119.873 1.03577 110.899C-1.45648 94.6895 7.89593 78.9895 23.3363 73.4625L31.6004 70.5044C36.3562 68.802 40.7905 66.3089 44.7162 63.1302L47.457 60.9109C51.837 57.3644 55.7418 53.2684 59.075 48.724L71.2512 32.1231C72.7938 30.02 74.1067 27.7577 75.1673 25.3749C80.148 14.1849 90.4068 6.2372 102.486 4.2102L118.052 1.59816C128.427 -0.142873 139.087 1.60302 148.365 6.5629C162.75 14.2534 172.195 28.776 173.391 45.0444Z" fill="#D2C1A7"/>
</svg>
