<svg width="290" height="672" viewBox="0 0 290 672" fill="none" xmlns="http://www.w3.org/2000/svg">
<path d="M121.435 494.021L124.87 631.794C125.363 651.569 140.001 668.127 159.566 671.042L160.462 671.175C164.131 671.722 167.863 671.682 171.519 671.058C188.57 668.148 200.946 653.231 200.658 635.935L199.658 576V500L201.159 442V429.19C201.159 424.586 202.988 420.171 206.243 416.916C209.098 414.062 212.858 412.291 216.876 411.91L220.569 411.559C224.448 411.19 228.206 410.007 231.596 408.085L235.683 405.769C240.09 403.271 244.089 400.113 247.54 396.406L249.014 394.823C255.045 388.345 259.677 380.631 262.582 372.271C264.935 365.499 266.15 358.339 266.15 351.17V337.5V296V270.537C266.15 260.731 260.539 251.791 251.708 247.527L250.197 246.797C245.155 244.363 239.361 243.998 234.053 245.781C225.598 248.62 219.786 256.399 219.458 265.312L218.59 288.943C218.54 290.308 218.302 291.66 217.885 292.96L215.172 301.408C212.257 310.486 199.96 311.808 195.183 303.556C194.214 301.882 193.704 299.981 193.704 298.046V265V228.5V144V64L192.482 31.3717C192.024 19.162 183.922 8.56572 172.259 4.92423C162.49 1.874 151.836 4.23025 144.264 11.1157L142.254 12.9437C138.24 16.5935 135.17 21.1614 133.307 26.2566L129.355 37.0658C126.944 43.6602 125.407 50.5421 124.785 57.5357L122.249 86L120.761 124L118.28 163V218V271L111.333 369L110.468 373.067C108.511 382.271 96.5655 384.79 91.0584 377.16C90.0344 375.741 89.3688 374.096 89.1182 372.364L82.5527 327L78.5 291L76.8366 264.053C76.3159 255.618 71.5001 248.041 64.0837 243.989C56.1965 239.68 46.5864 240.017 39.0205 244.868L37.0936 246.104C28.9344 251.336 24 260.362 24 270.054V291L28.9621 352L33.428 390L35.8513 410.348C37.1894 421.584 41.5576 432.396 48.3375 441.455C56.3146 452.114 67.5583 460.139 80.2651 464.112L85.4606 465.737C88.1378 466.574 90.9265 467 93.7315 467C108.767 467 121.06 478.99 121.435 494.021Z" fill="#747A56"/>
<ellipse cx="195.355" cy="484.184" rx="30.6054" ry="30.7779" fill="#682D0F"/>
<path fill-rule="evenodd" clip-rule="evenodd" d="M98.4933 366.145L82.6861 379.336L69.5695 396.923L56.4529 420.599L48.7175 441.568L43 467.273V491.963L46.0269 516.991L54.0987 539.652L64.1883 560.959L78.3139 579.223L95.8027 598.502L114.3 611.016L135.825 622.177L159.031 629.618L180.892 633H203.762L228.314 629.618L252.529 622.177L273.381 611.016L289.188 598.502L310.377 579.223L321.475 560.959L333.583 539.652L338.291 520.373L343 495.007V473.023L339.973 451.715L333.583 430.407L324.839 409.776L310.377 389.144L295.578 373.586L275.063 356.337L258.247 346.529L235.04 338.411L211.161 333H187.283H164.413L142.552 341.455L119.009 351.602L98.4933 366.145ZM66.8789 449.685L110.937 381.703L187.283 351.602L265.646 373.586L316.767 436.495L321.475 516.991L278.09 584.635L203.762 614.398L125.063 595.458L72.5964 532.211L66.8789 449.685Z" fill="#682D0F"/>
<rect width="107.624" height="8.78473" transform="matrix(0.999154 -0.0411177 0.0406588 0.999173 64.5254 486.917)" fill="#682D0F"/>
<rect width="107.874" height="8.76449" transform="matrix(0.764174 -0.64501 0.640769 0.767733 89.4131 565.602)" fill="#682D0F"/>
<rect width="108.199" height="8.73806" transform="matrix(0.223721 -0.974653 0.974099 0.226122 158.695 615.007)" fill="#682D0F"/>
<rect width="108.147" height="8.74232" transform="matrix(0.368064 0.929801 -0.928372 0.371653 205.968 500.66)" fill="#682D0F"/>
<rect width="107.625" height="8.7847" transform="matrix(0.99893 -0.0462473 0.0457314 0.998954 221.281 476.04)" fill="#682D0F"/>
<rect width="107.805" height="8.7701" transform="matrix(0.835712 0.549168 -0.544859 0.838528 219.303 493.315)" fill="#682D0F"/>
<rect width="107.876" height="8.76437" transform="matrix(0.762645 -0.646818 0.642582 0.766217 210.371 466.13)" fill="#682D0F"/>
<rect width="108.188" height="8.73898" transform="matrix(0.261788 -0.965126 0.964374 0.264541 195.691 462.443)" fill="#682D0F"/>
<rect width="107.818" height="8.7691" transform="matrix(0.823352 0.567531 -0.563207 0.826316 84.2725 405.034)" fill="#682D0F"/>
<rect width="108.154" height="8.74172" transform="matrix(0.351466 0.936201 -0.934889 0.354941 152.647 361.006)" fill="#682D0F"/>
<path d="M130 593.984V616.155L128.672 636.31V638.42C128.672 650.891 118.562 661 106.092 661H27.2592C22.8706 661 19.313 657.442 19.313 653.054C19.313 652.308 19.2081 651.567 19.0015 650.851L9.65649 618.465C3.25069 596.265 0 573.105 0 550V519C0 506.976 4.64417 495.417 12.9631 486.735L14.3842 485.252C17.6546 481.839 21.3773 478.89 25.4483 476.488L35.7445 470.412C40.6395 467.524 46.2193 466 51.903 466C59.979 466 67.7524 469.073 73.645 474.596L74.3914 475.296C77.7798 478.471 80.4897 482.301 82.3577 486.552L82.5861 487.072C86.3146 495.559 86.7363 505.132 83.7686 513.914L79.5267 526.465L73.2328 556.709C72.1187 562.062 71.5573 567.515 71.5573 572.983V591.142C71.5573 593.005 72.0388 594.837 72.955 596.459C76.3382 602.448 84.3811 603.796 89.5319 599.237L93.1392 596.044C94.6732 594.686 95.9067 593.023 96.7604 591.16L100.781 582.391C103.858 575.679 111.288 572.12 118.447 573.931C125.241 575.649 130 581.762 130 588.77V593.984Z" fill="#747A56"/>
</svg>
