<svg width="300" height="301" viewBox="0 0 300 301" fill="none" xmlns="http://www.w3.org/2000/svg">
<ellipse cx="152.355" cy="151.684" rx="30.6054" ry="30.7779" fill="#682D0F"/>
<path fill-rule="evenodd" clip-rule="evenodd" d="M55.4933 33.6454L39.6861 46.836L26.5695 64.4233L13.4529 88.0986L5.71749 109.068L0 134.773V159.463L3.02691 184.491L11.0987 207.152L21.1883 228.459L35.3139 246.723L52.8027 266.002L71.3004 278.516L92.8251 289.677L116.031 297.118L137.892 300.5H160.762L185.314 297.118L209.529 289.677L230.381 278.516L246.188 266.002L267.377 246.723L278.475 228.459L290.583 207.152L295.291 187.873L300 162.507V140.523L296.973 119.215L290.583 97.907L281.839 77.2757L267.377 56.6443L252.578 41.0862L232.063 23.8371L215.247 14.0287L192.04 5.9115L168.161 0.5H144.283H121.413L99.5516 8.95547L76.009 19.102L55.4933 33.6454ZM23.8789 117.185L67.9372 49.2035L144.283 19.102L222.646 41.0862L273.767 103.995L278.475 184.491L235.09 252.135L160.762 281.898L82.0628 262.958L29.5964 199.711L23.8789 117.185Z" fill="#682D0F"/>
<rect width="107.624" height="8.78473" transform="matrix(0.999154 -0.0411177 0.0406588 0.999173 21.5254 154.417)" fill="#682D0F"/>
<rect width="107.874" height="8.76449" transform="matrix(0.764174 -0.64501 0.640769 0.767733 46.4131 233.103)" fill="#682D0F"/>
<rect width="108.199" height="8.73806" transform="matrix(0.223721 -0.974653 0.974099 0.226122 115.695 282.507)" fill="#682D0F"/>
<rect width="108.147" height="8.74232" transform="matrix(0.368064 0.929801 -0.928372 0.371653 162.968 168.16)" fill="#682D0F"/>
<rect width="107.625" height="8.7847" transform="matrix(0.99893 -0.0462473 0.0457314 0.998954 178.281 143.54)" fill="#682D0F"/>
<rect width="107.805" height="8.7701" transform="matrix(0.835712 0.549168 -0.544859 0.838528 176.302 160.815)" fill="#682D0F"/>
<rect width="107.876" height="8.76437" transform="matrix(0.762645 -0.646818 0.642582 0.766217 167.372 133.63)" fill="#682D0F"/>
<rect width="108.188" height="8.73898" transform="matrix(0.261788 -0.965126 0.964374 0.264541 152.691 129.943)" fill="#682D0F"/>
<rect width="107.818" height="8.7691" transform="matrix(0.823352 0.567531 -0.563207 0.826316 41.2725 72.5342)" fill="#682D0F"/>
<rect width="108.154" height="8.74172" transform="matrix(0.351466 0.936201 -0.934889 0.354941 109.647 28.5059)" fill="#682D0F"/>
</svg>
