<svg width="407" height="521" viewBox="0 0 407 521" fill="none" xmlns="http://www.w3.org/2000/svg">
<ellipse cx="264.082" cy="262.552" rx="53.0493" ry="53.3484" fill="#682D0F"/>
<path fill-rule="evenodd" clip-rule="evenodd" d="M96.1883 57.9521L68.7892 80.8157L46.0538 111.3L23.3184 152.338L9.91031 188.685L0 233.24V276.036L5.24664 319.418L19.2377 358.696L36.7265 395.63L61.2108 427.287L91.5247 460.703L123.587 482.394L160.897 501.74L201.121 514.638L239.013 520.5H278.655L321.211 514.638L363.184 501.74L399.327 482.394L426.726 460.703L463.453 427.287L482.691 395.63L503.677 358.696L511.839 325.28L520 281.312V243.206L514.753 206.272L503.677 169.339L488.52 133.578L463.453 97.8168L437.803 70.8495L402.242 40.951L373.094 23.9498L332.87 9.87993L291.48 0.5H250.09H210.448L172.556 15.1561L131.749 32.7435L96.1883 57.9521ZM41.3901 202.755L117.758 84.9194L250.09 32.7435L385.919 70.8495L474.529 179.891L482.691 319.418L407.489 436.667L278.655 488.256L142.242 455.427L51.3004 345.799L41.3901 202.755Z" fill="#682D0F"/>
<rect width="186.549" height="15.2269" transform="matrix(0.999154 -0.0411177 0.0406588 0.999173 37.3101 267.289)" fill="#682D0F"/>
<rect width="186.982" height="15.1918" transform="matrix(0.764174 -0.64501 0.640769 0.767733 80.4497 403.678)" fill="#682D0F"/>
<rect width="187.546" height="15.146" transform="matrix(0.223721 -0.974653 0.974099 0.226122 200.539 489.312)" fill="#682D0F"/>
<rect width="187.455" height="15.1534" transform="matrix(0.368064 0.929801 -0.928372 0.371653 282.478 291.111)" fill="#682D0F"/>
<rect width="186.549" height="15.2268" transform="matrix(0.99893 -0.0462473 0.0457314 0.998954 309.021 248.437)" fill="#682D0F"/>
<rect width="186.862" height="15.2015" transform="matrix(0.835712 0.549168 -0.544859 0.838528 305.59 278.38)" fill="#682D0F"/>
<rect width="186.985" height="15.1916" transform="matrix(0.762645 -0.646818 0.642582 0.766217 290.111 231.259)" fill="#682D0F"/>
<rect width="187.526" height="15.1476" transform="matrix(0.261788 -0.965126 0.964374 0.264541 264.664 224.868)" fill="#682D0F"/>
<rect width="186.884" height="15.1998" transform="matrix(0.823352 0.567531 -0.563207 0.826316 71.5396 125.359)" fill="#682D0F"/>
<rect width="187.468" height="15.1523" transform="matrix(0.351466 0.936201 -0.934889 0.354941 190.056 49.0439)" fill="#682D0F"/>
</svg>
