<svg width="192" height="451" viewBox="0 0 192 451" fill="none" xmlns="http://www.w3.org/2000/svg">
<path d="M34.1655 131.221H96H157.834C160.408 131.221 162.97 131.515 165.445 132.094C170.831 133.353 175.624 135.92 179.192 139.456L180.524 140.777C183.197 143.425 185.221 146.471 186.485 149.748C187.489 152.351 188 155.064 188 157.794V261.878C188 265.693 186.226 269.366 183.039 272.149C180.68 274.209 177.659 275.683 174.324 276.401L172.478 276.799C169.92 277.35 167.228 277.335 164.679 276.755C160.609 275.83 157.196 273.517 155.307 270.424C154.263 268.716 153.714 266.823 153.714 264.913V199.003C153.714 198.421 153.533 197.848 153.188 197.339L152.79 196.753C151.768 195.247 149.357 194.826 147.674 195.86C146.8 196.396 146.286 197.238 146.286 198.133V264.074L148 280.915V291.752C148 293.257 147.853 294.76 147.56 296.246C146.02 304.063 148.562 312.05 154.566 318.258C155.521 319.246 156.402 320.302 157.201 321.419L165.714 333.308L173.714 348.277L178.932 361.52C179.261 362.354 179.429 363.225 179.429 364.102V366.46C179.429 368.475 180.927 370.286 183.211 371.034C185.967 371.937 187.508 374.349 186.84 376.716L184.571 384.765L179.429 397.863L178.334 400.909C175.264 409.455 171.031 417.691 165.714 425.463L161.714 431.544L157.401 436.841C154.974 439.82 151.758 442.314 147.992 444.136C143.508 446.305 138.395 447.449 133.187 447.449H125.307C121.798 447.449 118.317 446.932 115.031 445.924L112.306 445.087C111.346 444.792 110.445 444.38 109.636 443.865C107.162 442.289 105.714 439.867 105.714 437.301V434.128C105.714 432.418 106.076 430.722 106.783 429.113L109.485 422.97C110.399 420.892 111.149 418.769 111.741 416.614C112.367 414.332 113.187 411.371 113.714 409.558L115.276 404.231C116.516 400.001 117.143 395.665 117.143 391.314V376.144C117.143 375.674 116.914 375.222 116.508 374.889C115.298 373.899 115.9 372.205 117.571 371.901L124.426 370.654C127.182 370.152 129.143 368.151 129.143 365.84V363.839C129.143 363.136 129.021 362.436 128.78 361.76L125.143 351.552C121.735 345.042 117.311 338.898 112 333.308L99.5642 321.498C98.6023 320.585 97.3265 320.076 96 320.076C94.6735 320.076 93.3977 320.585 92.4358 321.498L80 333.308C74.6886 338.898 70.2651 345.042 66.8571 351.552L63.2199 361.76C62.9793 362.436 62.8571 363.136 62.8571 363.839V365.84C62.8571 368.151 64.818 370.152 67.574 370.654L74.4293 371.901C76.0998 372.205 76.7023 373.899 75.4923 374.889C75.0856 375.222 74.8571 375.674 74.8571 376.144V391.314C74.8571 395.665 75.4838 400.001 76.7241 404.231L78.2857 409.558C78.8131 411.371 79.6325 414.332 80.2588 416.614C80.8505 418.769 81.6013 420.892 82.5154 422.97L85.2168 429.113C85.9241 430.722 86.2857 432.418 86.2857 434.128V437.301C86.2857 439.867 84.8384 442.289 82.364 443.865C81.5546 444.38 80.6545 444.792 79.6943 445.087L76.9693 445.924C73.6832 446.932 70.2023 447.449 66.6928 447.449H58.8127C53.6046 447.449 48.4918 446.305 44.008 444.136C40.2416 442.314 37.0255 439.82 34.5988 436.841L30.2857 431.544L26.2857 425.463C20.9692 417.691 16.736 409.455 13.6657 400.909L12.5714 397.863L7.42857 384.765L5.15968 376.716C4.49233 374.349 6.03291 371.937 8.7885 371.034C11.0733 370.286 12.5714 368.475 12.5714 366.46V364.102C12.5714 363.225 12.7388 362.354 13.0675 361.52L18.2857 348.277L26.2857 333.308L34.7987 321.419C35.5985 320.302 36.4794 319.246 37.4344 318.258C43.4381 312.05 45.98 304.063 44.4399 296.246C44.1471 294.76 44 293.257 44 291.752V280.915L45.7143 264.074V198.133C45.7143 197.238 45.2 196.396 44.3262 195.86C42.6428 194.826 40.2323 195.247 39.2104 196.753L38.8124 197.339C38.467 197.848 38.2857 198.421 38.2857 199.003V264.913C38.2857 266.823 37.7365 268.716 36.6934 270.424C34.804 273.517 31.3912 275.83 27.3206 276.755C24.7717 277.335 22.0805 277.35 19.5222 276.799L17.6758 276.401C14.3406 275.683 11.3203 274.209 8.96146 272.149C5.77391 269.366 4 265.693 4 261.878V157.794C4 155.064 4.51094 152.351 5.51503 149.748C6.77886 146.471 8.80269 143.425 11.4756 140.777L12.8083 139.456C16.3759 135.92 21.169 133.353 26.5552 132.094C29.0301 131.515 31.5915 131.221 34.1655 131.221Z" stroke="#682D0F" stroke-width="7"/>
<path d="M78.8907 122.39L89.0677 124.976C89.4963 125.084 94.9798 125.443 95.4286 125.443C98.8938 125.443 102.345 125.012 105.704 124.158L110.824 122.858C114.645 121.887 118.332 120.592 121.825 118.994L128.57 115.909C133.428 113.686 137.454 110.383 140.174 106.408C142.674 102.753 144 98.6152 144 94.4267V91.8092C144 85.4353 147.811 79.4649 154.202 75.825C156.152 74.7148 157.887 73.372 159.35 71.8411L163.176 67.8392C165.992 64.894 168.194 61.5886 169.695 58.0563C171.221 54.4655 172 50.6906 172 46.8887V44.6794C172 42.0959 169.442 40.0015 166.286 40.0015H165.094C164.369 40.0015 163.649 40.0949 162.96 40.2783L142.92 45.61C141.766 45.9171 140.522 45.9132 139.37 45.599C137.308 45.0365 135.82 43.5599 135.537 41.7962L133.143 26.9033L130.725 17.0054C130.433 15.8119 129.964 14.6523 129.327 13.5524C126.733 9.06811 120.98 5.72896 114.983 4.99065C114.911 4.98178 114.857 4.92077 114.857 4.84819C114.857 4.77562 114.803 4.71458 114.731 4.70585C113.836 4.59748 112.9 4.44922 112 4.44922H96H77.9868C77.0444 4.44922 76.1032 4.50398 75.1703 4.61308L74.2483 4.7209C68.2059 5.42755 62.9997 8.56884 60.3868 13.0846C59.7504 14.1845 59.2811 15.3441 58.9896 16.5376L56.5714 26.4355L54.1777 41.3284C53.8942 43.0922 52.4058 44.5687 50.3443 45.1312C49.1928 45.4455 47.9486 45.4493 46.7942 45.1422L26.7548 39.8105C26.0654 39.6271 25.3451 39.5337 24.6202 39.5337H23.4286C20.2727 39.5337 17.7143 41.6281 17.7143 44.2116V46.4209C17.7143 50.2228 18.4933 53.9977 20.019 57.5885C21.5199 61.1208 23.7225 64.4262 26.538 67.3714L30.3638 71.3733C31.8273 72.9042 33.5626 74.247 35.5119 75.3572C41.9035 78.9971 45.7143 84.9675 45.7143 91.3415V93.9589C45.7143 98.1474 47.0406 102.286 49.5405 105.94C52.2599 109.916 56.2862 113.218 61.1447 115.441L67.8892 118.526C71.3821 120.124 75.0693 121.419 78.8907 122.39Z" stroke="#682D0F" stroke-width="7"/>
</svg>
