<svg width="209" height="459" viewBox="0 0 209 459" fill="none" xmlns="http://www.w3.org/2000/svg">
<path d="M104.5 425.677V381.43M104.5 425.677C104.5 429.442 104.014 433.191 103.053 436.827L100.744 445.567C100.059 448.161 98.6265 450.482 96.6331 452.23C94.2645 454.308 91.2478 455.449 88.1281 455.449H83.6664C81.5412 455.449 79.4259 455.152 77.3794 454.566L76.1428 454.211C71.1997 452.795 66.9739 449.497 64.3329 444.994C63.2358 443.123 62.4368 441.086 61.9659 438.958L56.908 416.104L54.5043 392.988V381.43C54.5043 378.306 56.9795 375.774 60.0327 375.774C63.0859 375.774 65.5611 373.242 65.5611 370.118V327.576C65.5611 323.42 62.42 319.972 58.3681 319.679L30.6344 317.676C27.291 317.435 24.6992 314.589 24.6992 311.16C24.6992 310.308 24.8621 309.465 25.1786 308.677L56.908 229.703L62.0612 215.644C62.4594 214.558 62.481 213.364 62.1224 212.264L61.4724 210.269C60.5293 207.374 56.8465 206.663 54.9373 209.007C54.6509 209.359 54.4273 209.759 54.2769 210.19L49.6971 223.31C46.4965 230.186 43.7908 237.292 41.6015 244.571L39.1211 252.819L36.9069 261.597C35.8439 265.811 33.5625 269.599 30.3612 272.464L30.2066 272.603C28.4711 274.156 26.4854 275.391 24.3379 276.25L22.0626 277.161C18.5221 278.578 14.573 278.478 11.106 276.882L9.85889 276.307C7.94387 275.426 6.3511 273.946 5.30921 272.081C3.88433 269.53 3.60803 266.473 4.55152 263.697L6.91232 256.753L44.0931 150.341C44.6227 148.826 45.3104 147.373 46.1443 146.007C48.4598 142.217 51.8303 139.222 55.8227 137.407L57.3618 136.707C60.8661 135.113 64.6581 134.29 68.4929 134.29H104.5H140.507C144.342 134.29 148.134 135.113 151.638 136.707L153.177 137.407C157.17 139.222 160.54 142.217 162.856 146.007C163.69 147.373 164.377 148.826 164.907 150.341L202.088 256.753L204.448 263.697C205.392 266.473 205.116 269.53 203.691 272.081C202.649 273.946 201.056 275.426 199.141 276.307L197.894 276.882C194.427 278.478 190.478 278.578 186.937 277.161L184.662 276.25C182.515 275.391 180.529 274.156 178.793 272.603L178.639 272.464C175.437 269.599 173.156 265.811 172.093 261.597L169.879 252.819L167.398 244.571C165.209 237.292 162.504 230.186 159.303 223.31L154.723 210.19C154.573 209.759 154.349 209.359 154.063 209.007C152.153 206.663 148.471 207.374 147.528 210.269L146.878 212.264C146.519 213.364 146.541 214.558 146.939 215.644L152.092 229.703L183.821 308.677C184.138 309.465 184.301 310.308 184.301 311.16C184.301 314.589 181.709 317.435 178.366 317.676L150.632 319.679C146.58 319.972 143.439 323.42 143.439 327.576V370.118C143.439 373.242 145.914 375.774 148.967 375.774C152.021 375.774 154.496 378.306 154.496 381.43V392.988L152.092 416.104L147.034 438.958C146.563 441.086 145.764 443.123 144.667 444.994C142.026 449.497 137.8 452.795 132.857 454.211L131.621 454.566C129.574 455.152 127.459 455.449 125.334 455.449H120.872C117.752 455.449 114.736 454.308 112.367 452.23C110.373 450.482 108.941 448.161 108.256 445.567L105.947 436.827C104.986 433.191 104.5 429.442 104.5 425.677ZM104.5 381.43C104.5 380.072 103.424 375.774 102.096 375.774C100.769 375.774 99.6927 374.673 99.6927 373.315V319.707C99.6927 318.348 100.769 317.248 102.096 317.248C103.424 317.248 104.5 316.146 104.5 314.788C104.5 316.146 105.576 317.248 106.904 317.248C108.231 317.248 109.307 318.348 109.307 319.707V373.315C109.307 374.673 108.231 375.774 106.904 375.774C105.576 375.774 104.5 380.072 104.5 381.43ZM104.5 4.44922H88.6079C85.5142 4.44922 82.5126 5.52642 80.0968 7.50365C77.8364 9.35373 76.2107 11.8923 75.4554 14.7513L69.7743 36.2565C68.139 42.4465 62.6501 46.7458 56.3827 46.7458C55.1361 46.7458 53.8953 46.574 52.6937 46.2348L42.3542 43.3167C41.1656 42.9813 39.9383 42.8113 38.7054 42.8113H37.6789C36.1007 42.8113 34.5469 43.2087 33.1544 43.9685L32.2705 44.4508C29.6815 45.8634 28.0643 48.621 28.0643 51.6229C28.0643 52.942 28.3781 54.2413 28.9787 55.4087L30.808 58.9647C32.1721 61.6161 34.002 63.9878 36.206 65.9609L38.2841 67.8212C39.7993 69.1775 41.4506 70.3658 43.2106 71.3661L47.5401 73.8269C53.9155 77.4505 57.8694 84.3254 57.8694 91.7868C57.8694 95.4638 58.8339 99.0733 60.6623 102.239L61.7314 104.09C63.3119 106.826 65.3299 109.272 67.7014 111.325L71.8479 114.914C75.0153 117.656 78.5067 119.981 82.2401 121.832L90.4622 125.911C91.7913 126.57 93.2492 126.913 94.7262 126.913H104.5C105.977 126.913 117.209 126.57 118.538 125.911L126.76 121.832C130.493 119.981 133.985 117.656 137.152 114.914L141.299 111.325C143.67 109.272 145.688 106.826 147.269 104.09L148.338 102.239C150.166 99.0733 151.131 95.4638 151.131 91.7868C151.131 84.3254 155.085 77.4505 161.46 73.8269L165.789 71.3661C167.549 70.3658 169.201 69.1775 170.716 67.8212L172.794 65.9609C174.998 63.9878 176.828 61.6161 178.192 58.9647L180.021 55.4087C180.622 54.2413 180.936 52.942 180.936 51.6229C180.936 48.621 179.318 45.8634 176.729 44.4508L175.846 43.9685C174.453 43.2087 172.899 42.8113 171.321 42.8113H170.295C169.062 42.8113 167.834 42.9813 166.646 43.3167L156.306 46.2348C155.105 46.574 153.864 46.7458 152.617 46.7458C146.35 46.7458 140.861 42.4465 139.226 36.2565L133.545 14.7513C132.789 11.8923 131.164 9.35373 128.903 7.50365C126.487 5.52642 123.486 4.44922 120.392 4.44922H104.5Z" stroke="#682D0F" stroke-width="7"/>
</svg>
