<svg width="130" height="148" viewBox="0 0 130 148" fill="none" xmlns="http://www.w3.org/2000/svg">
<path d="M1.03361 40.7154C-1.38082 36.9584 1.09015 32.0375 5.10846 32.6005L43.0154 37.9113C44.6531 38.1407 46.2271 37.4096 47.172 35.9805L69.0423 2.90326C71.3607 -0.603083 76.4718 0.795941 77.471 5.21035L86.8968 46.854C87.304 48.6532 88.508 50.1447 90.0759 50.7927L126.369 65.792C130.217 67.382 130.904 73.1676 127.504 75.3329L95.4222 95.7593C94.0362 96.6417 93.2062 98.2947 93.2304 100.124L93.7906 142.472C93.8499 146.961 89.164 149.137 86.063 146.061L56.8097 117.042C55.5459 115.788 53.829 115.318 52.276 115.801L16.3289 126.973C12.5183 128.158 8.93436 123.718 10.4186 119.651L24.4205 81.2896C25.0254 79.6323 24.7944 77.6889 23.8103 76.1576L1.03361 40.7154Z" fill="#D4A913"/>
</svg>
