<svg width="165" height="187" viewBox="0 0 165 187" fill="none" xmlns="http://www.w3.org/2000/svg">
<path d="M1.00847 49.2123C-1.40597 45.4553 1.06501 40.5344 5.08331 41.0974L55.6782 48.1858C57.3159 48.4152 58.89 47.6841 59.8348 46.255L89.0254 2.10635C91.3438 -1.4 96.4549 -0.000983572 97.4541 4.41343L110.035 59.9958C110.442 61.7949 111.646 63.2865 113.214 63.9345L161.655 83.9543C165.502 85.5443 166.19 91.3298 162.79 93.4951L119.97 120.759C118.584 121.641 117.754 123.294 117.778 125.124L118.526 181.645C118.585 186.134 113.899 188.311 110.798 185.235L71.7536 146.502C70.4898 145.248 68.7729 144.778 67.2199 145.261L19.2408 160.173C15.4302 161.358 11.8463 156.917 13.3305 152.851L32.019 101.649C32.624 99.9922 32.3929 98.0487 31.4089 96.5175L1.00847 49.2123Z" fill="#E9E1D5"/>
</svg>
