<svg width="78" height="86" viewBox="0 0 78 86" fill="none" xmlns="http://www.w3.org/2000/svg">
<path d="M19.4385 6.42068C19.248 1.96219 23.8684 -1.03327 27.0579 1.48091L42.0399 13.2906C43.3398 14.3153 45.0697 14.4796 46.6079 13.7244L64.3369 5.02121C68.1112 3.16838 71.8234 6.95517 70.4585 11.2659L64.0476 31.5147C63.4914 33.2716 63.7791 35.1655 64.8074 36.5159L76.6594 52.0796C79.1826 55.393 76.8564 60.7288 72.8234 60.8789L53.8792 61.5836C52.2355 61.6447 50.6835 62.6509 49.7807 64.2407L39.3767 82.5628C37.1618 86.4634 32.012 85.9743 30.8842 81.7563L25.587 61.943C25.1274 60.2239 23.8805 58.9519 22.2942 58.584L4.01223 54.344C0.120166 53.4413 -0.736431 47.8033 2.59963 45.0463L18.2699 32.0964C19.6296 30.9727 20.411 29.1804 20.3333 27.3633L19.4385 6.42068Z" fill="#D4A913"/>
</svg>
