<svg width="83" height="90" viewBox="0 0 83 90" fill="none" xmlns="http://www.w3.org/2000/svg">
<path d="M20.5362 6.03335C20.3457 1.57486 24.9661 -1.4206 28.1556 1.09358L44.3965 13.8956C45.6964 14.9203 47.4263 15.0846 48.9645 14.3294L68.1832 4.89491C71.9575 3.04208 75.6697 6.82887 74.3048 11.1396L67.3552 33.0899C66.799 34.8467 67.0867 36.7407 68.1151 38.0911L80.9629 54.9625C83.486 58.2759 81.1599 63.6117 77.1269 63.7617L56.5909 64.5257C54.9472 64.5868 53.3951 65.5931 52.4924 67.1828L41.2142 87.0444C38.9992 90.9451 33.8494 90.456 32.7217 86.2379L26.9794 64.7599C26.5198 63.0408 25.2728 61.7687 23.6866 61.4008L3.86842 56.8045C-0.0236419 55.9019 -0.880235 50.2638 2.45583 47.5069L19.4429 33.4688C20.8025 32.3451 21.5839 30.5528 21.5062 28.7357L20.5362 6.03335Z" fill="#E9E1D5"/>
</svg>
