<svg width="86" height="97" viewBox="0 0 86 97" fill="none" xmlns="http://www.w3.org/2000/svg">
<path d="M1.4674 28.3763C-0.947041 24.6193 1.52393 19.6984 5.54223 20.2614L27.5892 23.3502C29.2269 23.5796 30.801 22.8484 31.7458 21.4194L44.4658 2.18141C46.7841 -1.32494 51.8952 0.0740761 52.8944 4.48849L58.3766 28.7088C58.7838 30.5079 59.9877 31.9995 61.5557 32.6475L82.6642 41.3712C86.5114 42.9612 87.1993 48.7467 83.7985 50.912L65.1398 62.7922C63.7537 63.6747 62.9237 65.3277 62.9479 67.1572L63.2737 91.7867C63.3331 96.2758 58.6471 98.4524 55.5461 95.3762L38.5322 78.4983C37.2684 77.2445 35.5515 76.7746 33.9985 77.2573L13.0913 83.7555C9.28078 84.9398 5.69681 80.4995 7.18108 76.4331L15.3247 54.1218C15.9296 52.4644 15.6985 50.521 14.7145 48.9898L1.4674 28.3763Z" fill="#D4A913"/>
</svg>
