<svg width="96" height="105" viewBox="0 0 96 105" fill="none" xmlns="http://www.w3.org/2000/svg">
<path d="M24.8294 6.23954C24.6389 1.78105 29.2593 -1.21441 32.4488 1.29976L52.4663 17.0788C53.7662 18.1035 55.4961 18.2677 57.0344 17.5126L80.7221 5.88418C84.4964 4.03135 88.2086 7.81813 86.8438 12.1289L78.2781 39.1834C77.7218 40.9403 78.0096 42.8342 79.0379 44.1846L94.8733 64.9794C97.3965 68.2927 95.0704 73.6286 91.0373 73.7786L65.7259 74.7202C64.0822 74.7813 62.5302 75.7875 61.6275 77.3773L47.7266 101.858C45.5117 105.758 40.3619 105.269 39.2341 101.051L32.1565 74.5785C31.6969 72.8594 30.4499 71.5873 28.8637 71.2194L4.43702 65.5543C0.544955 64.6517 -0.311649 59.0136 3.02441 56.2567L23.9616 38.9541C25.3212 37.8305 26.1026 36.0381 26.025 34.221L24.8294 6.23954Z" fill="#E9E1D5"/>
</svg>
