<svg width="140" height="154" viewBox="0 0 140 154" fill="none" xmlns="http://www.w3.org/2000/svg">
<path d="M90.4213 1.48052C93.4693 -1.23011 98.2833 1.44309 98.36 5.88885L99.1439 51.3375C99.1752 53.1494 100.067 54.88 101.498 55.9074L137.396 81.6781C140.908 84.1989 140.387 89.8616 136.538 91.0163L97.1852 102.82C95.6163 103.291 94.442 104.638 94.0843 106.378L85.111 150.016C84.2332 154.284 79.0975 155.111 76.6417 151.379L51.5366 113.225C50.5357 111.704 48.9186 110.806 47.2663 110.854L5.82212 112.053C1.76808 112.17 -0.885428 107.019 1.44626 103.557L25.283 68.1731C26.2333 66.7624 26.4081 64.8602 25.7447 63.1501L9.10407 20.2533C7.4763 16.0572 10.9721 12.0467 14.8689 13.6396L54.7059 29.9243C56.2941 30.5735 58.0193 30.2958 59.2615 29.1911L90.4213 1.48052Z" fill="#D4A913"/>
</svg>
