<svg width="97" height="113" viewBox="0 0 97 113" fill="none" xmlns="http://www.w3.org/2000/svg">
<path d="M1.87293 25.2401C-0.0505809 21.2096 3.0188 16.638 6.93459 17.7011L33.0557 24.793C34.6517 25.2262 36.3051 24.6985 37.4219 23.3995L55.7019 2.13697C58.4422 -1.05048 63.3371 0.979323 63.7741 5.48427L66.6885 35.5355C66.8666 37.3715 67.8737 39.0024 69.3479 39.8422L93.4767 53.5876C97.0938 55.6481 97.0497 61.4742 93.4039 63.1953L69.084 74.6761C67.5982 75.3775 66.5671 76.9132 66.3614 78.7313L62.9939 108.489C62.4891 112.95 57.5668 114.521 54.8767 111.08L36.9317 88.1238C35.8353 86.7213 34.191 86.0395 32.5897 86.3233L6.37966 90.9692C2.45053 91.6657 -0.547439 86.8105 1.43575 82.9626L14.665 57.2944C15.4733 55.7261 15.4881 53.769 14.7041 52.1264L1.87293 25.2401Z" fill="#E9E1D5"/>
</svg>
