<svg width="130" height="127" viewBox="0 0 130 127" fill="none" xmlns="http://www.w3.org/2000/svg">
<path d="M125.23 40.3859C129.487 40.6587 131.469 45.7961 128.498 48.8579L102.812 75.3245C101.601 76.5724 101.125 78.3598 101.556 80.0446L110.687 115.778C111.743 119.912 107.469 123.384 103.639 121.504L70.5306 105.254C68.9695 104.488 67.1225 104.588 65.6533 105.518L34.4904 125.244C30.8853 127.526 26.2622 124.535 26.8665 120.311L32.0902 83.8016C32.3365 82.0802 31.6707 80.3545 30.3322 79.2445L1.94147 55.7026C-1.3429 52.9792 0.0733738 47.658 4.27703 46.9275L40.6141 40.6134C42.3274 40.3157 43.7629 39.1493 44.4049 37.5332L58.0214 3.25721C59.5966 -0.708007 65.095 -1.00538 67.0887 2.76681L84.3226 35.3743C85.1351 36.9117 86.6881 37.9165 88.4234 38.0277L125.23 40.3859Z" fill="#D4A913"/>
</svg>
