<svg width="297" height="299" viewBox="0 0 297 299" fill="none" xmlns="http://www.w3.org/2000/svg">
<path d="M203.229 1.32869C206.517 -1.39037 211.481 0.993097 211.415 5.25923L209.906 102.754C209.879 104.492 210.757 106.12 212.225 107.052L294.543 159.314C298.145 161.6 297.412 167.058 293.334 168.313L200.145 197.005C198.483 197.517 197.207 198.855 196.774 200.54L172.508 294.978C171.446 299.11 166.029 300.1 163.575 296.61L107.49 216.848C106.49 215.425 104.823 214.625 103.087 214.734L5.77238 220.838C1.51411 221.105 -1.10078 216.259 1.46023 212.847L59.987 134.859C61.0308 133.469 61.277 131.635 60.6371 130.018L24.7593 39.3531C23.1893 35.3858 26.9901 31.4014 31.027 32.7825L123.283 64.3453C124.929 64.9082 126.748 64.5759 128.088 63.4677L203.229 1.32869Z" fill="#D4A913"/>
</svg>
