<svg width="240" height="235" viewBox="0 0 240 235" fill="none" xmlns="http://www.w3.org/2000/svg">
<path d="M57.0405 6.45123C56.5983 2.20757 61.3325 -0.604645 64.8476 1.81366L127.143 44.671C128.576 45.6566 130.417 45.8271 132.007 45.1212L201.11 14.427C205.01 12.695 209.147 16.3284 207.933 20.4188L186.424 92.9088C185.929 94.5759 186.336 96.3802 187.499 97.6735L238.045 153.91C240.897 157.083 238.72 162.141 234.455 162.251L158.866 164.195C157.128 164.239 155.537 165.184 154.666 166.689L116.802 232.14C114.665 235.833 109.182 235.325 107.76 231.303L82.553 160.014C81.9733 158.375 80.5835 157.154 78.8829 156.791L4.93518 141.005C0.762554 140.114 -0.449079 134.743 2.9371 132.147L62.9472 86.1443C64.3272 85.0864 65.0585 83.3874 64.8783 81.6578L57.0405 6.45123Z" fill="#D4A913"/>
</svg>
