<svg width="315" height="448" viewBox="0 0 315 448" fill="none" xmlns="http://www.w3.org/2000/svg">
<rect x="30" y="42.4069" width="252" height="246" fill="#C3AE8D"/>
<path d="M203.304 130.089V100.428L187.727 93.2126L162.236 90.4069H147.602L126.832 93.2126L119.28 100.428L117.863 131.692H87.1801L76.795 136.101L83.4037 142.113L95.677 145.32H111.727V150.531L117.863 158.547L111.727 160.551L114.559 169.37L119.28 177.787V182.196L123.056 189.01L126.832 199.031V209.051L123.056 217.87L111.727 225.485L95.677 230.696L81.0435 235.105H69.7143L56.4969 241.118L48 248.332V284.407H276V273.585L271.752 257.952L265.143 241.118L259.478 225.485L250.509 217.87L239.18 215.064H228.795L216.994 217.87H206.137L196.224 215.064L191.975 209.051V199.031L196.224 189.01L200.472 177.787L206.137 172.175V165.762L208.969 160.551V148.527L216.994 145.32L228.795 142.113L245.789 136.101V131.692H228.795L203.304 130.089Z" fill="#4B342C"/>
<path fill-rule="evenodd" clip-rule="evenodd" d="M4 0.40686H18.5L21.5 11.4039H30.5V16.4039H38.5V7.40393L48.4286 11.4039V0.40686H252L258.5 7.90393L263.5 6.90393L266 9.90393V19.9039L271.841 18.9039L275.5 9.90393L281.5 12.9039V21.4039H289.5L287.5 32.4039H296.5L298 21.4039L306 27.9039L307.5 47.4039L315 43.9039V73.4039L309 79.9039L311 83.9039L306 88.4039L315 94.9039V194.404L298 210.404L315 224.404V300.904L309 309.904L311.5 319.404L305 323.904L309 332.404L303 342.404H315V447.407H243L235 438.404L231.5 447.407L224.5 438.404L220 447.407H94.5V436.404L80.5 438.404L73 431.404L61.5 436.404L54 428.904V436.404H48.4286L51 442.404L48.4286 447.407H4V366.454L15.5 369.904V361.404L21.5 358.404L18.5 350.404L27 339.904L7.5 335.904L11 328.404L4 322.404V165.404L13.5 176.904V165.404L21.5 153.904L13.5 151.404L18.5 137.904H11L13.5 128.404L4 115.904V0.40686ZM271.841 68.218H156.974H48.4286V272.858H156.974H271.841V68.218Z" fill="#D2C1A7"/>
</svg>
