<svg width="311" height="448" viewBox="0 0 311 448" fill="none" xmlns="http://www.w3.org/2000/svg">
<rect x="24" y="59.4066" width="252" height="246" fill="#C3AE8D"/>
<path d="M120.887 211.741L127.927 208.102V179.247H123.234L120.887 175.348V168.85V162.351L102.583 154.552L92.962 148.054L85.6874 140.775L84.0448 131.937L85.6874 124.139L90.3807 119.979L99.5326 118.68L109.389 119.979L120.887 122.059L127.927 124.139L132.151 111.401L136.375 98.4039L141.772 85.4066H156.087L174.39 87.2262L186.593 89.5657L192.929 129.078L217.099 130.637L230.71 131.937L237.046 140.775L235.638 152.473L225.078 160.011L210.998 165.21L197.622 168.85L188.94 188.605L180.726 203.682V214.08L190.348 224.738L203.254 232.277L219.681 242.415L235.638 250.213L250.422 254.372L262.389 256.712L271.307 260.611L273.419 264.25L276 272.308L273.419 281.407H120.887H92.258H69.4956H49.7838L39.4586 278.547L35 275.948V272.308L39.4586 264.25L57.2931 258.791L69.4956 254.372L84.0448 247.354L95.3087 240.855L105.165 233.576L112.439 224.738L116.898 217.979L120.887 211.741Z" fill="#4B342C"/>
<path fill-rule="evenodd" clip-rule="evenodd" d="M311 0.406555H305L296.5 10.9066L291 18.9066L285 14.9066L283 23.9066H270V14.9066H260.5L255.5 0.406555H37.5L34.5 3.90656L30.5 1.90656L27 3.90656L24.5 1.90656L20.5 9.40656L13.5 0.406555H0V98.9066L17 110.407L0 125.907V245.407L4.5 250.907V257.407L10.5 261.907L0 272.858V411.907L6 416.407V411.907H10.5H14V418.407H22.5V426.907L29 433.907H36V447.407H82.5L88.5 440.407L93.5 444.907L101.5 430.407L105.5 447.407H205L209.5 441.907L215 447.407H311V394.407L293 388.907L303.5 385.907V382.407L311 377.907V192.407L303.5 200.907L293 190.407L300 180.907L293 173.907L300 164.407L311 158.407V0.406555ZM152.974 68.2177H267.841V272.858H152.974H44.4286V68.2177H152.974Z" fill="#D2C1A7"/>
</svg>
