<svg width="312" height="448" viewBox="0 0 312 448" fill="none" xmlns="http://www.w3.org/2000/svg">
<rect x="33" y="59.4066" width="252" height="246" fill="#C3AE8D"/>
<rect x="33" y="59.4066" width="252" height="246" fill="#C3AE8D"/>
<rect x="33" y="59.4066" width="252" height="246" fill="#C3AE8D"/>
<path fill-rule="evenodd" clip-rule="evenodd" d="M222 0.406555H22.5V3.90363H18V7.40363L10.5 8.40363L14.5 11.9036H21H22.5C23.1667 11.5703 24.5 11.1036 24.5 11.9036V14.9036L17 18.9036H8.5L6.5 25.4036H1V105.904L3 108.404H5.5L8.5 109.904V113.904L4 116.904L5.5 120.904H4H1V153.404L11 157.404L5.5 165.404H15L5.5 170.904V178.404H1V308.904V314.904H8V305.904L15 308.904V314.904V327.404L8 329.904L1 336.904V447.407H13L11 434.404L23 440.404L19.5 424.404L26 430.904L31 424.404V434.404H36.5V440.404L42.5 443.904L36.5 447.407H133.5L140 430.904L144 437.904H150V430.904H158.5V437.904L176.5 430.904V447.407H312V397.904L309 396.404L306.5 400.404H302L305 392.904L302 391.404L305 388.404L302 386.404L305 383.404L306.5 379.904L312 384.905V322.404L306.5 314.404L295 322.404L300.5 308.904L295 295.404L291 288.904L295 280.404L300.5 272.858L295 263.904L300.5 255.404L312 250.904V194.904L308 193.404L309 186.404L308 185.404L309.5 182.404L306 178.404L312 174.904V94.9036L304.5 90.9036V75.4036L300.5 68.2177L304.5 52.4036L300.5 50.4036V42.9036H307.5L312 35.9036V0.406555H261.5V6.40363H256.5V14.9036L254 16.4036L252 11.4036V4.40363H248.5V9.40363H243L239.5 6.40363L236.5 9.40363L224.5 6.40363V2.90363L222 0.406555ZM153.974 68.2177H268.841V272.858H153.974H45.4286V68.2177H153.974Z" fill="#D2C1A7"/>
<path d="M123.58 94.8018L131.563 91.5614L140.185 85.4046H148.487H158.706L169.244 87.6729L171.798 91.5614L178.824 94.8018L187.765 100.311L190.319 105.819V127.53L191.916 129.15L194.79 133.687H203.092L214.269 138.872L228 143.408L226.403 147.621L214.269 152.805L198.303 155.722V161.554L196.067 166.739H200.857L203.092 170.952L198.303 179.701V185.534L196.067 187.154L191.916 185.534V192.986L184.891 203.68L194.79 207.892L191.916 213.725L196.067 221.826L191.916 229.603V237.38L186.168 239H177.227L171.798 240.945L169.244 246.777L158.706 244.833V248.398L163.176 256.175V262.007V267.192L155.832 264.6L153.277 270.108L150.084 271.405L145.933 264.6L140.185 267.192V258.443L142.739 252.286L144.336 246.777L142.739 244.833H136.353H131.563L126.134 240.945H120.387L110.487 237.38V232.196L108.571 226.687L106.336 219.882L110.487 208.865H108.571V204.976L117.513 201.412L110.487 192.986V185.534H106.336H103.462V181.645V176.136H101.546L99.9496 170.952L101.546 166.739H106.336L103.462 161.554L106.336 155.722L91.3277 152.805L80.1513 150.861L76 147.621V143.408L99.9496 133.687H110.487L113.042 127.53L114.958 102.255L123.58 94.8018Z" fill="#4B342C"/>
</svg>
