<svg width="311" height="448" viewBox="0 0 311 448" fill="none" xmlns="http://www.w3.org/2000/svg">
<rect x="29" y="49.4069" width="252" height="246" fill="#C3AE8D"/>
<path d="M64.6853 123.544L117.509 117.319L119.966 104.504L122.832 91.6875V83.6318L124.879 78.8715L132.25 77.4069H144.944L158.047 78.8715H166.237L175.655 77.4069H185.073H191.216L195.72 80.7024L197.767 112.193H251V117.319L241.991 120.249L228.069 123.544L212.509 128.305L205.138 129.769L206.366 136.727V143.318L203.5 151.373V162.359L198.996 164.922L200.634 180.301L206.366 187.624L210.871 200.806L212.509 230.466L206.366 241.818C206.23 243.771 206.039 248.335 206.366 250.972C206.694 253.608 196.675 258.906 191.625 261.225V269.647L185.073 274.407L165.828 264.154L140.849 249.507L126.108 234.86L115.052 219.847L111.366 213.256L102.767 199.708L89.6638 200.806H79.8362L70.4181 198.609L64.6853 195.68L61 191.286L64.6853 189.455L68.3707 191.286H72.056L78.1983 189.455L84.3405 187.624L89.6638 184.695V180.301L86.7974 175.175L82.7026 172.611L81.4741 169.682L89.6638 168.217L97.0345 169.682L103.996 171.513L108.5 176.639L111.366 180.301H117.509V164.922L113.004 162.359L111.366 155.767V149.176L108.5 145.515V140.022V134.115L105.224 133.431L89.6638 131.234H78.1983H70.4181H64.6853L63.0474 128.305L64.6853 123.544Z" fill="#4B342C"/>
<path fill-rule="evenodd" clip-rule="evenodd" d="M0 0.40686H15L21.5 11.9069L29 7.40686L36 11.9069L44.4286 0.40686H110L113.5 5.90686L118.5 3.90686L124 5.90686L126.5 0.40686H162L167.5 5.90686L172 3.90686L176 5.90686L178.5 0.40686H299.5V3.90686L295.5 9.90686H303L299.5 15.9069L305.5 20.4069L299.5 25.9069L303 28.4069V41.9069L305.5 45.4069L311 53.4069V264.407L305 272.858V285.407L298 289.907L311 300.907V398.407L307.5 406.907V413.407L302.5 417.407L307.5 420.407V427.407L305 431.407L307.5 436.407L302.5 442.407L294.5 439.407V447.407H109.5L103.5 433.907V440.907L97 437.407L94.5 447.407H66V440.907H60V433.907L46.5 427.407L41.5 422.407H38V427.407H32L24 422.407V436.407H18V443.407L11 440.907L8.5 447.407H0V307.907L8.5 289.907L11.5 272.858L5.5 264.407V256.407L0 244.907V128.407L5.5 120.907H11.5V110.907H18.5L21.5 104.407L15.5 95.4069V91.4069V86.9069L8.5 81.9069V76.9069L0 68.218V0.40686ZM267.841 68.218H152.974H44.4286V272.858H152.974H267.841V68.218Z" fill="#D2C1A7"/>
</svg>
