<svg width="270" height="823" viewBox="0 0 270 823" fill="none" xmlns="http://www.w3.org/2000/svg">
<path d="M90.9999 479.328L95.5823 430.724L232.228 438.246L267.47 466.445L227.528 488.097L90.9999 479.328Z" fill="#4B342C"/>
<path d="M210.957 128.039L201.256 196.622L56.236 183.22L21.4346 142.661L66.1856 112.878L210.957 128.039Z" fill="#4B342C"/>
<path d="M108.557 823L133.829 0H156.573V823H108.557Z" fill="#4B342C"/>
<path d="M80.587 103.203L73.3266 55.014L206.685 20.6243L247.385 37.035L214.132 70.0486L80.587 103.203Z" fill="#4B342C"/>
<path d="M102.85 319.276L89.5705 254.085L214 218L258.67 238.446L230.588 283.54L102.85 319.276Z" fill="#4B342C"/>
<path d="M196.012 326.849L203.318 375.683L51.0072 413.61L5.05303 397.827L43.5131 363.522L196.012 326.849Z" fill="#4B342C"/>
</svg>
