<svg width="468" height="421" viewBox="0 0 468 421" fill="none" xmlns="http://www.w3.org/2000/svg">
<path fill-rule="evenodd" clip-rule="evenodd" d="M228.819 0C250.436 0.186528 259.845 10.3423 257.043 30.4673C254.85 35.7315 251.247 39.8691 246.234 42.8799C245.433 44.0083 245.433 45.1367 246.234 46.2652C264.297 76.6359 282.513 106.915 300.881 137.103C340.023 145.92 379.257 154.383 418.582 162.492C426.84 144.544 440.451 139.842 459.417 148.387C470.565 160.39 470.565 172.427 459.417 184.496C451.994 189.522 443.987 190.651 435.396 187.882C432.06 186.156 428.857 184.652 425.788 183.368C400.226 209.026 374.804 234.792 349.522 260.665C352.718 298.248 356.321 335.863 360.332 373.507C366.004 375.54 371.81 377.608 377.747 379.713C386.746 386.65 389.749 395.49 386.754 406.231C378.973 420.456 367.162 424.405 351.324 418.079C346.652 415.15 343.249 411.2 341.115 406.231C340.782 399.731 340.582 393.336 340.515 387.048C306.384 372.597 272.355 357.928 238.427 343.039C201.493 357.567 164.661 372.424 127.932 387.612C131.601 401.139 127.198 411.671 114.721 419.208C91.3281 423.93 79.9183 415.091 80.4912 392.69C85.5404 380.633 94.948 374.99 108.715 375.763C113.385 340.031 117.589 304.297 121.326 268.564C94.6562 240.876 68.4341 212.854 42.6587 184.496C37.9975 184.978 33.5945 186.482 29.4474 189.01C14.5451 190.755 4.73662 184.924 0.0220911 171.52C-0.541193 151.738 9.66758 142.9 30.6484 145.002C40.2579 147.458 45.8631 153.288 47.4628 162.492C85.2677 156.384 122.9 149.425 160.36 141.617C180.728 109.926 200.946 78.1423 221.012 46.2652C221.95 44.6361 221.749 43.1315 220.411 41.7515C206.061 29.2083 206.061 16.6077 220.411 3.94947C223.324 2.58115 226.127 1.26462 228.819 0Z" fill="#4B342C"/>
</svg>
