<svg width="300" height="270" viewBox="0 0 300 270" fill="none" xmlns="http://www.w3.org/2000/svg">
<path fill-rule="evenodd" clip-rule="evenodd" d="M146.748 0C160.612 0.119626 166.646 6.63283 164.849 19.5396C163.443 22.9157 161.132 25.5692 157.917 27.5002C157.403 28.2239 157.403 28.9476 157.917 29.6712C169.502 49.1489 181.184 68.5681 192.964 87.9282C218.067 93.5831 243.229 99.0108 268.449 104.211C273.745 92.7002 282.475 89.6846 294.638 95.1651C301.787 102.863 301.787 110.583 294.638 118.323C289.878 121.546 284.742 122.27 279.233 120.494C277.093 119.388 275.039 118.423 273.071 117.599C256.677 134.055 240.373 150.579 224.159 167.172C226.209 191.275 228.52 215.399 231.092 239.541C234.729 240.845 238.453 242.172 242.26 243.521C248.032 247.971 249.958 253.64 248.037 260.528C243.047 269.651 235.472 272.184 225.315 268.127C222.318 266.248 220.136 263.715 218.767 260.528C218.554 256.36 218.425 252.258 218.382 248.225C196.493 238.958 174.669 229.55 152.91 220.001C129.223 229.318 105.602 238.847 82.0466 248.587C84.3998 257.263 81.576 264.017 73.5738 268.85C58.5715 271.879 51.254 266.21 51.6215 251.844C54.8596 244.111 60.893 240.493 69.7225 240.988C72.7173 218.072 75.4132 195.155 77.8102 172.238C60.7059 154.481 43.8888 136.509 27.3583 118.323C24.369 118.632 21.5452 119.597 18.8855 121.218C9.3282 122.337 3.03774 118.597 0.0141677 110.001C-0.347083 97.3145 6.20011 91.6458 19.6557 92.994C25.8186 94.5695 29.4134 98.3081 30.4394 104.211C54.6848 100.294 78.8193 95.8309 102.844 90.823C115.906 70.4989 128.873 50.115 141.742 29.6712C142.343 28.6265 142.215 27.6616 141.356 26.7765C132.153 18.7322 132.153 10.651 141.356 2.53291C143.224 1.65537 145.022 0.811038 146.748 0Z" fill="#D4A913"/>
</svg>
